<svg width="40" height="40" viewBox="0 0 40 40" fill="none" xmlns="http://www.w3.org/2000/svg">
<path d="M20.0002 9.3805L11.3296 0.995495C10.309 0.00799455 8.7966 -0.272787 7.48801 0.280182C6.18066 0.835573 5.33105 2.11854 5.33105 3.53948V24.9457C5.33105 26.3837 5.91457 27.7607 6.94848 28.7617L17.5393 39.0046C18.9114 40.3314 21.0891 40.3314 22.4599 39.0046L33.0519 28.7617C34.0858 27.7607 34.6693 26.3837 34.6693 24.9457V3.53948C34.6693 2.11854 33.8197 0.835651 32.5124 0.280182C31.2038 -0.272787 29.6914 0.00799455 28.6708 0.995495L20.0002 9.3805ZM29.6755 24.3292C29.6755 24.809 29.4814 25.268 29.136 25.6012L20.0002 34.4379V16.3288L21.7361 14.6491L28.1765 8.42104C28.4304 8.17448 28.81 8.10362 29.136 8.24284C29.4632 8.38081 29.6755 8.70182 29.6755 9.05706V24.3292Z" fill="#977CDB"/>
</svg>
