<svg width="40" height="40" viewBox="0 0 40 40" fill="none" xmlns="http://www.w3.org/2000/svg">
<path d="M16.0149 20.542C16.0149 19.7266 15.3542 19.0662 14.5389 19.0662C13.7242 19.0662 13.063 19.7266 13.063 20.542C13.063 21.3566 13.7242 22.0176 14.5389 22.0176C15.3542 22.0176 16.0149 21.3566 16.0149 20.542Z" fill="#977CDB"/>
<path d="M25.4613 19.0662C24.6466 19.0662 23.9854 19.7266 23.9854 20.542C23.9854 21.3566 24.6466 22.0176 25.4613 22.0176C26.2766 22.0176 26.9372 21.3566 26.9372 20.542C26.9372 19.7266 26.2765 19.0662 25.4613 19.0662Z" fill="#977CDB"/>
<path d="M38.5951 18.035C37.8072 17.2452 36.7335 16.7323 35.5487 16.6475C34.8105 13.1811 32.968 10.1241 30.3915 7.88344C27.5767 5.43414 23.889 3.94828 19.8645 3.94891C15.846 3.94828 12.1628 5.42969 9.34945 7.87328C6.75969 10.1202 4.91 13.1913 4.175 16.6747C3.10047 16.8149 2.13141 17.3073 1.40484 18.035C0.538594 18.9 -0.000546459 20.106 4.15646e-07 21.4273C-0.000546459 22.748 0.538594 23.9552 1.405 24.8191C2.26977 25.6858 3.47602 26.2246 4.79703 26.2241C4.89063 26.2241 4.97883 26.2105 5.07047 26.2048C6.22555 28.9555 8.11391 31.3183 10.5027 33.0376C13.1354 34.9339 16.3745 36.0516 19.8646 36.0511C23.3703 36.0516 26.6216 34.9231 29.2608 33.0127C31.6377 31.2922 33.5167 28.9334 34.6656 26.1896C34.842 26.2099 35.0203 26.2241 35.203 26.2241C36.5242 26.2246 37.7308 25.6858 38.595 24.8191C39.4614 23.9552 40.0005 22.748 39.9999 21.4273C40.0006 20.106 39.4615 18.9 38.5951 18.035ZM22.2508 6.37445C22.3299 6.46602 22.4125 6.56953 22.4945 6.69336C22.8441 7.22367 23.1966 8.05703 23.1987 9.37555C23.199 10.3712 22.9877 11.6507 22.3975 13.2591C20.5337 11.7586 19.464 10.3756 18.8624 9.23641C18.2071 7.99367 18.0887 7.03312 18.0878 6.47672C18.0878 6.40492 18.0912 6.34672 18.0946 6.28898C18.6752 6.21437 19.263 6.16289 19.8645 6.16289C20.6796 6.16297 21.4754 6.2393 22.2508 6.37445ZM17.6876 9.85664C18.0226 10.4916 18.4805 11.1757 19.0773 11.8898C18.4791 11.6478 17.8791 11.4216 17.3155 11.183C16.3524 10.7771 15.508 10.3237 14.9352 9.7193C14.6469 9.41625 14.421 9.07758 14.2596 8.66766C14.1273 8.32844 14.0425 7.93156 14.0153 7.46453C14.8846 7.05859 15.8045 6.74594 16.7612 6.52656C16.7671 7.27852 16.9435 8.44883 17.6876 9.85664ZM37.0295 23.2535C36.5588 23.7227 35.9202 24.0094 35.203 24.0105C34.907 24.0099 34.6223 23.9574 34.3476 23.8613L33.2997 23.4927L32.9353 24.5421C31.9959 27.2452 30.2398 29.5713 27.9627 31.2193C25.6845 32.8669 22.8938 33.8365 19.8647 33.837C16.8489 33.8365 14.0689 32.8753 11.7961 31.2408C9.52438 29.6062 7.76766 27.2977 6.81867 24.6133L6.47492 23.642L5.48156 23.915C5.25484 23.9766 5.02836 24.0106 4.79711 24.0106C4.07992 24.0095 3.44188 23.7228 2.97063 23.2536C2.50164 22.7826 2.215 22.1443 2.21445 21.4273C2.215 20.7105 2.50164 20.072 2.97063 19.6005C3.44188 19.1318 4.07992 18.8452 4.79711 18.8446C4.84234 18.8441 4.90969 18.848 5.00289 18.8554L6.02992 18.9362L6.1843 17.9169C6.68555 14.5918 8.37125 11.6541 10.8007 9.54516C11.4079 9.01883 12.0606 8.54445 12.7523 8.12883C12.8123 8.50367 12.9047 8.85539 13.0339 9.17875C13.2377 9.69156 13.5238 10.1359 13.863 10.5153C14.4576 11.1813 15.201 11.6495 15.977 12.0334C17.1437 12.6067 18.4031 13.003 19.4615 13.4972C19.9907 13.7431 20.4673 14.01 20.8574 14.3176C21.2492 14.6269 21.5548 14.97 21.7724 15.3867C21.8895 15.6123 22.123 15.7502 22.3774 15.7445C22.6313 15.7384 22.8586 15.5897 22.9646 15.3584C24.1132 12.8707 24.5267 10.9133 24.5273 9.37547C24.5291 8.33398 24.3342 7.48875 24.0592 6.82328C25.875 7.40109 27.5327 8.33172 28.9391 9.55406C31.3697 11.6686 33.0537 14.6148 33.5492 17.9467L33.7123 19.0464L34.8111 18.8784C34.9575 18.8564 35.087 18.8445 35.203 18.8445C35.9202 18.8451 36.5588 19.1317 37.0295 19.6005C37.4987 20.072 37.7853 20.7103 37.7862 21.4273C37.7854 22.1443 37.4987 22.7826 37.0295 23.2535Z" fill="#977CDB"/>
<path d="M24.05 25.575C23.1274 26.8533 21.6299 27.6494 19.9999 27.6489C18.3727 27.6495 16.8727 26.8528 15.9492 25.5745C15.6984 25.2279 15.2142 25.1499 14.8676 25.4004C14.5204 25.6514 14.4428 26.1354 14.6932 26.4825C15.9025 28.1566 17.8636 29.1986 19.9999 29.1986C22.1387 29.1986 24.0981 28.1566 25.3069 26.4819C25.5574 26.1347 25.4794 25.6508 25.1322 25.4003C24.785 25.1498 24.3005 25.2278 24.05 25.575Z" fill="#977CDB"/>
</svg>
