<svg width="20" height="19" viewBox="0 0 20 19" fill="none" xmlns="http://www.w3.org/2000/svg">
<path d="M19.6992 9.90595L16.718 10.9262C14.2882 11.7571 12.3759 13.5738 11.5013 15.8821L10.4273 18.7143C10.2832 19.0952 9.7168 19.0952 9.57269 18.7143L8.49874 15.8821C7.62405 13.5738 5.71177 11.7571 3.28195 10.9262L0.300752 9.90595C-0.100251 9.76905 -0.100251 9.23095 0.300752 9.09405L3.28195 8.07381C5.71177 7.24286 7.62405 5.42619 8.49874 3.11786L9.57269 0.285714C9.7168 -0.0952381 10.2832 -0.0952381 10.4273 0.285714L11.5013 3.11786C12.3759 5.42619 14.2882 7.24286 16.718 8.07381L19.6992 9.09405C20.1003 9.23095 20.1003 9.76905 19.6992 9.90595Z" fill="#2E2E2E"/>
</svg>
