<svg width="20" height="20" viewBox="0 0 20 20" fill="none" xmlns="http://www.w3.org/2000/svg">
<path d="M19.6992 10.406L16.718 11.4262C14.2882 12.2571 12.3759 14.0738 11.5013 16.3821L10.4273 19.2143C10.2832 19.5952 9.7168 19.5952 9.57269 19.2143L8.49874 16.3821C7.62405 14.0738 5.71177 12.2571 3.28195 11.4262L0.300752 10.406C-0.100251 10.269 -0.100251 9.73095 0.300752 9.59405L3.28195 8.57381C5.71177 7.74286 7.62405 5.92619 8.49874 3.61786L9.57269 0.785714C9.7168 0.404762 10.2832 0.404762 10.4273 0.785714L11.5013 3.61786C12.3759 5.92619 14.2882 7.74286 16.718 8.57381L19.6992 9.59405C20.1003 9.73095 20.1003 10.269 19.6992 10.406Z" fill="#977CDB"/>
</svg>
