<svg width="200" height="66" viewBox="0 0 200 66" fill="none" xmlns="http://www.w3.org/2000/svg">
<g clip-path="url(#clip0_22_7)">
<g style="mix-blend-mode:luminosity">
<path d="M0.320556 64.4555C-0.149151 64.643 -0.0895715 65.3229 0.408539 65.4107C5.00861 66.2248 15.0685 67.1385 20.8041 61.094C28.4087 53.0796 42.351 24.8186 49.1104 25.2405C55.8699 25.6624 44.0407 43.8001 51.2227 47.596C58.4048 51.3926 74.882 33.2549 78.6839 13.0083C78.6839 13.0083 66.0095 38.7385 59.25 35.7857C57.3594 35.2462 58.5143 28.9506 58.5295 23.8606C58.5427 19.5342 54.6541 16.1644 50.3921 16.9453C46.8478 17.5955 42.7833 19.8911 38.337 24.4347C31.538 31.3826 10.2675 60.4798 0.320556 64.4555Z" fill="url(#paint0_linear_22_7)"/>
<path d="M78.6838 13.0083C78.6838 13.0083 72.8609 46.2293 47.5958 63.2278C47.2973 63.4284 47.2966 63.8662 47.5993 64.0613C49.4317 65.2468 55.2455 67.9699 62.2073 60.6721C70.6572 51.8138 79.1063 36.2077 78.6844 13.0083H78.6838Z" fill="url(#paint1_linear_22_7)"/>
<path d="M84.1713 5.75491L82.5232 6.34767C81.1799 6.83046 80.1227 7.88595 79.6391 9.2271L79.0454 10.8726C78.9657 11.0939 78.6526 11.0939 78.5729 10.8726L77.9792 9.2271C77.4956 7.88595 76.4385 6.83046 75.0952 6.34767L73.447 5.75491C73.2253 5.67537 73.2253 5.36273 73.447 5.28319L75.0952 4.69043C76.4385 4.20764 77.4956 3.15215 77.9792 1.811L78.5729 0.165513C78.6526 -0.055822 78.9657 -0.055822 79.0454 0.165513L79.6391 1.811C80.1227 3.15215 81.1799 4.20764 82.5232 4.69043L84.1713 5.28319C84.393 5.36273 84.393 5.67537 84.1713 5.75491Z" fill="#FDE195"/>
<path d="M81.7556 56.8034C81.888 56.533 82.0632 56.008 82.1304 55.6808L82.1367 55.6497L82.7609 55.5923L82.7387 55.6552C82.5891 56.0792 82.3029 56.6187 82.1471 56.8179L81.7986 56.8657L81.7224 56.8733L81.7563 56.8048L81.7556 56.8034ZM80.8342 56.8034C80.9624 56.5413 81.1432 56.028 81.209 55.6815L81.2146 55.6497L81.8388 55.5923L81.8173 55.6545C81.6808 56.0585 81.3871 56.6118 81.225 56.8179L80.8765 56.8657L80.8003 56.8733L80.8342 56.8048V56.8034Z" fill="#977CDB"/>
<path d="M80.8723 56.822C81.0025 56.5564 81.1854 56.0342 81.2505 55.689L81.7764 55.6406C81.6406 56.0432 81.351 56.5875 81.191 56.7916L80.8716 56.8227L80.8723 56.822ZM81.7944 56.822C81.9246 56.5564 82.102 56.0342 82.1726 55.689L82.6991 55.6406C82.5571 56.0432 82.2738 56.5875 82.1137 56.7916L81.7944 56.8227V56.822Z" fill="#977CDB"/>
<path d="M87.7281 61.9203C86.9557 61.9203 86.3086 61.7467 85.9061 61.432C85.5271 61.1373 85.3429 60.7687 85.3429 60.3066C85.3429 59.8446 85.5306 59.4434 85.965 58.9724L85.956 58.9752C85.4475 59.1329 85.0083 59.2698 84.47 59.4683C84.2046 59.5638 83.9615 59.6668 83.807 59.7332C83.6421 59.8038 83.4918 59.8474 83.4135 59.8474C83.2569 59.8474 83.1641 59.754 83.1641 59.5984C83.1641 59.4427 83.2611 59.2657 83.4751 59.2387C83.5645 59.2269 83.6296 59.2193 83.7079 59.202C84.0924 59.1149 84.3737 58.9558 84.7443 58.6148C85.0221 58.3672 85.4648 57.8962 85.8715 57.4161C86.1915 57.0295 86.3599 56.8123 86.4513 56.6684C86.5033 56.591 86.5185 56.5626 86.5185 56.5439C86.5074 56.5419 86.495 56.5412 86.4818 56.5412C86.4326 56.5412 86.3703 56.5536 86.3204 56.5758L86.1943 56.629C86.0578 56.6857 85.8888 56.7563 85.6782 56.8559C85.4024 56.9859 85.1946 57.0945 85.0775 57.1706C85.011 57.2225 84.9203 57.2584 84.8545 57.2584C84.5995 57.2501 84.3314 56.9174 84.3314 56.6103C84.3314 56.5481 84.339 56.4928 84.355 56.436L84.3626 56.4105L84.5094 56.3862L84.5233 56.4146C84.6148 56.5979 84.6882 56.6567 84.8247 56.6567C84.9611 56.6567 85.2438 56.5654 85.5272 56.4672C85.7509 56.3904 86.0814 56.27 86.3876 56.1289C86.4097 56.1193 86.4298 56.1075 86.4485 56.0971C86.4908 56.0736 86.5303 56.0508 86.5753 56.0508C86.7049 56.0508 86.8476 56.1317 87.0506 56.2721C87.2265 56.4125 87.3201 56.5149 87.3201 56.6615C87.3201 56.7611 87.2383 56.8504 87.106 56.8939C86.9681 56.9417 86.7977 57.1049 86.6349 57.2674C86.4673 57.4341 86.3031 57.6022 86.1382 57.7696C85.7904 58.1237 85.4322 58.4882 85.0533 58.841C85.3262 58.7614 85.5756 58.6895 85.8112 58.6217C86.319 58.4751 86.7582 58.3485 87.2127 58.2067C87.3118 58.1763 87.5591 58.0974 87.7143 58.011C87.7898 57.9736 87.9006 57.9245 88.0163 57.9245C88.2747 57.9245 88.6357 58.067 88.6357 58.2994C88.6357 58.5318 88.4902 58.5712 88.238 58.5712C87.5702 58.5712 87.2127 58.686 86.7866 58.8984C86.1299 59.2159 85.7537 59.6834 85.7537 60.1808C85.7537 60.5646 85.9497 60.8869 86.292 61.0647C86.6141 61.2335 86.9467 61.2833 87.1683 61.2964C87.2071 61.2985 87.239 61.2992 87.2667 61.2992C87.3402 61.2992 87.3824 61.2923 87.4392 61.2826C87.5535 61.2598 87.6374 61.2452 87.6762 61.2452C88.0509 61.2528 88.2214 61.4527 88.2214 61.6346C88.2214 61.8166 88.0551 61.921 87.7281 61.921V61.9203Z" fill="#977CDB"/>
<path d="M84.4846 56.4343C84.5733 56.6114 84.6544 56.6999 84.8241 56.6999C84.9571 56.6999 85.201 56.6259 85.5404 56.5083C85.821 56.4122 86.1314 56.2946 86.405 56.1687C86.4715 56.139 86.5235 56.0947 86.5748 56.0947C86.6932 56.0947 86.8332 56.1757 87.0258 56.3085C87.2107 56.4558 87.2773 56.5443 87.2773 56.6626C87.2773 56.7435 87.2031 56.8175 87.0923 56.8542C86.9447 56.9061 86.7674 57.0755 86.6046 57.2381C86.0358 57.8059 85.4968 58.3814 84.8906 58.9347C85.8439 58.6546 86.5159 58.4699 87.2253 58.2486C87.395 58.1967 87.6022 58.1234 87.7352 58.0494C87.8093 58.0127 87.9125 57.9685 88.0158 57.9685C88.2742 57.9685 88.5922 58.1089 88.5922 58.3005C88.5922 58.4706 88.5111 58.5294 88.2374 58.5294C87.5945 58.5294 87.2253 58.6325 86.7667 58.8614C86.0649 59.201 85.7102 59.6873 85.7102 60.1818C85.7102 60.5878 85.9166 60.9191 86.2713 61.1038C86.5817 61.2664 86.9066 61.3251 87.1657 61.3397C87.3133 61.3473 87.3652 61.3397 87.4463 61.3251C87.5571 61.303 87.6382 61.2885 87.6756 61.2885C88.0303 61.2961 88.1779 61.4801 88.1779 61.635C88.1779 61.7602 88.0892 61.8785 87.7269 61.8785C86.9219 61.8785 86.308 61.6938 85.9312 61.3992C85.5619 61.1114 85.3846 60.7573 85.3846 60.3077C85.3846 59.8353 85.5917 59.4078 86.1085 58.8835C85.5397 59.0606 85.052 59.2079 84.4535 59.4293C84.1874 59.5254 83.9436 59.6285 83.7884 59.6949C83.6332 59.7613 83.4857 59.8055 83.4115 59.8055C83.2931 59.8055 83.2051 59.7468 83.2051 59.5994C83.2051 59.4521 83.3014 59.3041 83.478 59.282C83.53 59.2743 83.611 59.2674 83.7143 59.2453C84.1057 59.1568 84.3939 58.9949 84.7708 58.6477C85.0513 58.3973 85.4947 57.9249 85.9014 57.4456C86.182 57.1066 86.3815 56.8556 86.4847 56.693C86.5436 56.6045 86.5588 56.5747 86.5588 56.5457C86.5588 56.5236 86.5367 56.4938 86.4847 56.4938C86.4549 56.4938 86.3662 56.5083 86.3004 56.5381C86.1452 56.6045 85.9381 56.6854 85.6575 56.8182C85.3915 56.9434 85.1774 57.0541 85.052 57.135C84.9855 57.1869 84.9045 57.2159 84.8525 57.2159C84.6163 57.2083 84.3724 56.8839 84.3724 56.6107C84.3724 56.5519 84.38 56.5 84.3946 56.4482L84.4833 56.4336L84.4846 56.4343Z" fill="#977CDB"/>
<path d="M92.4939 61.3465L92.5348 61.3355C94.2148 60.8769 95.0669 60.0621 95.0669 58.9132C95.0669 58.0223 94.2792 57.0754 92.8195 57.0754C92.7406 57.0754 92.6734 57.0789 92.5951 57.0837C92.787 57.276 92.9068 57.4842 92.9068 57.6295C92.9068 57.7284 92.8743 57.7941 92.8334 57.8778L92.7925 57.9642L92.7149 58.1379C92.5951 58.409 92.3942 58.862 92.1559 59.3095C91.8205 59.9576 91.5663 60.3512 91.3072 60.6244C91.1174 60.8278 90.9393 60.9184 90.7294 60.9184C90.5375 60.9184 90.3318 60.7994 90.1641 60.5926C89.9334 60.3069 89.7852 59.8248 89.7852 59.3635C89.7852 57.8916 91.1867 56.6943 92.9089 56.6943C94.5051 56.6943 95.6634 57.6648 95.6634 59.0018C95.6634 60.7821 94 61.4074 92.6055 61.6183L92.5674 61.6239L92.4953 61.3465H92.4939ZM92.2037 57.1453C91.1035 57.3701 90.277 58.2527 90.277 59.2079C90.277 59.609 90.3629 59.932 90.5181 60.1174C90.595 60.2156 90.6878 60.2495 90.744 60.2495C90.8451 60.2495 90.9622 60.2212 91.1319 60.0144C91.6238 59.4105 92.0145 58.483 92.2037 57.9829C92.2695 57.8086 92.3194 57.6606 92.3194 57.4815C92.3194 57.3535 92.2868 57.2574 92.2037 57.1453Z" fill="#977CDB"/>
<path d="M92.5466 61.3763C94.061 60.9634 95.1106 60.1964 95.1106 58.9126C95.1106 57.9387 94.2314 57.032 92.8202 57.032C92.7094 57.032 92.6207 57.0396 92.4953 57.0465C92.7246 57.2533 92.8646 57.4815 92.8646 57.6296C92.8646 57.7478 92.8126 57.8142 92.7537 57.947C92.6651 58.1386 92.4212 58.7217 92.1185 59.2896C91.7859 59.9314 91.5351 60.3222 91.276 60.5955C91.0765 60.8092 90.9068 60.8756 90.7294 60.8756C90.5819 60.8756 90.3823 60.7947 90.1974 60.5657C89.9833 60.3001 89.8281 59.8353 89.8281 59.3636C89.8281 57.9104 91.195 56.7373 92.9089 56.7373C94.4753 56.7373 95.6205 57.7036 95.6205 59.0018C95.6205 60.713 94.0617 61.3549 92.5986 61.5762L92.5466 61.377V61.3763ZM90.2341 59.208C90.2341 59.6361 90.3304 59.9605 90.4849 60.1452C90.5659 60.2482 90.6699 60.2925 90.7433 60.2925C90.8687 60.2925 90.9948 60.2482 91.1645 60.0414C91.5857 59.5247 91.9695 58.721 92.2432 57.9982C92.3097 57.8212 92.3616 57.6662 92.3616 57.4815C92.3616 57.3411 92.3249 57.2305 92.221 57.0977C91.1569 57.3038 90.2334 58.167 90.2334 59.2073L90.2341 59.208Z" fill="#977CDB"/>
<path d="M96.5055 62.1813L96.547 62.1633C98.0954 61.4861 98.6843 60.5946 98.7078 58.8813H97.244L96.4473 58.92V58.5126L97.246 58.5514H99.6687V57.2061H98.1404C97.8876 57.6404 97.5994 58.0278 97.2599 58.3874L97.2343 58.4144L97.0451 58.2809L97.0673 58.2463C97.5204 57.5381 97.8903 56.6043 98.0808 55.6858L98.0905 55.6415L98.1342 55.6533C98.7896 55.8303 98.9046 55.8829 98.9046 56.0046C98.9046 56.1264 98.8187 56.1741 98.5762 56.2308C98.5215 56.4272 98.4252 56.6513 98.3108 56.8768H99.668V56.8167C99.668 56.1125 99.6604 55.766 99.6389 55.4921L99.6347 55.4409L99.686 55.4465C100.42 55.5212 100.537 55.5723 100.537 55.6955C100.537 55.8034 100.456 55.8753 100.242 55.9541V56.8768H101.455L101.535 56.7599C101.632 56.6451 101.733 56.5261 101.845 56.4037L101.871 56.3754L101.902 56.3982C102.58 56.8941 102.644 56.9778 102.644 57.0746C102.644 57.1521 102.577 57.2061 102.482 57.2061H100.242V58.5514H102.209C102.323 58.3757 102.427 58.2422 102.613 58.0347L102.639 58.0049L102.671 58.0292C103.362 58.5583 103.434 58.6551 103.434 58.7492C103.434 58.8267 103.367 58.8806 103.273 58.8806H100.923C100.899 58.9318 100.862 58.9726 100.811 59.003V61.4266C100.811 61.5657 100.846 61.6272 101.684 61.6272C102.522 61.6272 102.639 61.5643 102.747 61.3692C102.86 61.168 102.928 60.9037 102.987 60.6713L102.997 60.634L103.223 60.6679L103.219 60.708C103.197 60.9798 103.182 61.2295 103.182 61.4052C103.182 61.4398 103.205 61.4592 103.248 61.493C103.302 61.5352 103.374 61.5926 103.374 61.7144C103.374 61.9703 103.086 62.1404 101.676 62.1404C100.413 62.1404 100.222 62.0671 100.222 61.5816C100.222 61.5096 100.225 61.4011 100.229 61.253C100.238 60.9314 100.252 60.421 100.252 59.6781V58.8799H99.4304C99.4151 58.9498 99.3736 58.9975 99.2953 59.0348C99.2364 60.8636 98.4418 61.8638 96.6419 62.3749L96.608 62.3846L96.5055 62.1799V62.1813Z" fill="#977CDB"/>
<path d="M99.7118 57.1646H98.1163C97.8648 57.5996 97.5766 57.9904 97.2295 58.3598L97.1041 58.2712C97.5475 57.5782 97.9244 56.6562 98.1239 55.6968C98.7516 55.8663 98.8624 55.9182 98.8624 56.0067C98.8624 56.0952 98.8181 56.1326 98.5673 56.1914C98.471 56.4494 98.3601 56.6928 98.2424 56.9218H99.7125V56.8187C99.7125 56.1326 99.7048 55.7708 99.6827 55.4907C100.407 55.5647 100.495 55.6166 100.495 55.6975C100.495 55.7715 100.451 55.8379 100.2 55.9265V56.9225H101.456C101.589 56.7675 101.722 56.6057 101.877 56.4355C102.542 56.9225 102.601 57.0034 102.601 57.0774C102.601 57.1293 102.557 57.1659 102.483 57.1659H100.2V58.597H102.21C102.357 58.4054 102.461 58.2726 102.646 58.0658C103.311 58.5749 103.392 58.6779 103.392 58.752C103.392 58.8038 103.347 58.8405 103.273 58.8405H100.894C100.872 58.9069 100.828 58.9512 100.769 58.9809V61.4301C100.769 61.6217 100.872 61.6736 101.685 61.6736C102.542 61.6736 102.668 61.6072 102.786 61.3934C102.896 61.1942 102.963 60.9432 103.029 60.6852L103.178 60.7073C103.156 60.9805 103.141 61.2309 103.141 61.408C103.141 61.5332 103.333 61.5332 103.333 61.7178C103.333 61.9392 103.045 62.1017 101.678 62.1017C100.4 62.1017 100.267 62.0208 100.267 61.5857C100.267 61.3568 100.296 60.7668 100.296 59.6823V58.8412H99.3952C99.3875 58.9297 99.3432 58.974 99.2545 59.0106C99.2026 60.8546 98.3975 61.8361 96.6316 62.3376L96.5651 62.2048C98.117 61.5262 98.7377 60.6112 98.7522 58.8412H97.2454L96.4917 58.8778V58.5604L97.2454 58.597H99.7131V57.1659L99.7118 57.1646Z" fill="#977CDB"/>
<path d="M105.426 56.8034C105.558 56.533 105.733 56.008 105.801 55.6808L105.807 55.6497L106.431 55.5923L106.409 55.6552C106.259 56.0792 105.973 56.6187 105.817 56.8179L105.469 56.8657L105.393 56.8733L105.426 56.8048L105.426 56.8034ZM104.504 56.8034C104.632 56.5413 104.813 56.028 104.878 55.6815L104.884 55.6497L105.508 55.5923L105.487 55.6545C105.35 56.0585 105.057 56.6118 104.894 56.8179L104.546 56.8657L104.47 56.8733L104.504 56.8048V56.8034Z" fill="#977CDB"/>
<path d="M104.543 56.822C104.673 56.5564 104.856 56.0342 104.921 55.689L105.447 55.6406C105.311 56.0432 105.021 56.5875 104.861 56.7916L104.542 56.8227L104.543 56.822ZM105.464 56.822C105.594 56.5564 105.772 56.0342 105.842 55.689L106.369 55.6406C106.227 56.0432 105.943 56.5875 105.783 56.7916L105.464 56.8227V56.822Z" fill="#977CDB"/>
<path d="M109.861 61.958C109.145 61.958 108.718 61.6827 108.718 61.2214C108.718 60.7849 109.229 60.4557 109.906 60.4557C110.139 60.4557 110.353 60.4702 110.541 60.4993C110.528 60.1133 110.521 59.7384 110.514 59.3518C110.274 59.3822 109.997 59.3974 109.669 59.3974C109.147 59.3974 108.925 59.2411 108.925 58.8752C108.925 58.5806 109.175 58.2582 109.69 57.8917C109.397 57.9408 109.142 57.9671 108.96 57.9671H108.907C108.264 57.9442 108.032 57.8592 107.827 57.3715L107.813 57.339L108.015 57.2014L108.04 57.2318C108.206 57.4338 108.349 57.5189 108.806 57.5265H108.876C109.339 57.5265 109.958 57.4594 110.499 57.3501C110.499 57.1156 110.499 56.9261 110.491 56.7227C110.483 56.5014 110.454 56.334 110.407 56.2386C110.371 56.1646 110.309 56.1279 110.214 56.1217C110.182 56.1196 110.153 56.1189 110.125 56.1189C110.059 56.1189 110.006 56.1237 109.971 56.1293L109.933 56.1348L109.887 55.9522L109.908 55.9349C110.045 55.8277 110.199 55.771 110.356 55.771C110.483 55.771 110.761 55.8699 110.975 55.9903C111.103 56.067 111.182 56.1687 111.182 56.2559C111.182 56.325 111.155 56.3638 111.121 56.4129C111.03 56.5477 111.004 56.6211 110.997 56.731C110.984 56.9012 110.976 57.0402 110.969 57.2519C111.315 57.1848 111.564 57.1225 111.767 57.0499C111.883 57.0063 111.97 56.9704 112.08 56.9123C112.199 56.8486 112.286 56.8189 112.461 56.8189C112.656 56.8189 112.793 56.9365 112.793 57.1052C112.793 57.2346 112.653 57.2934 112.483 57.3522C112.177 57.4448 111.615 57.5922 110.946 57.7298V58.8296C111.334 58.7459 111.554 58.6622 111.632 58.629C111.688 58.6013 111.742 58.5743 111.796 58.5204C111.866 58.4512 112.028 58.4194 112.151 58.4194C112.399 58.4194 112.511 58.5411 112.511 58.6539C112.511 58.7818 112.405 58.8469 112.324 58.8842C112.021 59.0212 111.65 59.1228 110.96 59.257C110.961 59.6928 110.991 60.1659 111.017 60.5892C111.471 60.6992 112.012 60.9219 112.373 61.1481C112.662 61.3196 112.77 61.4552 112.77 61.6488C112.77 61.8176 112.651 61.9497 112.498 61.9497C112.391 61.9497 112.278 61.8937 112.109 61.756C111.655 61.3881 111.326 61.1771 111.023 61.0602C111.002 61.3168 110.887 61.5568 110.716 61.6965C110.515 61.8619 110.204 61.9573 109.861 61.9573L109.861 61.958ZM109.721 60.8292C109.335 60.8292 109.085 60.9717 109.085 61.1923C109.085 61.413 109.35 61.5181 109.832 61.5181C110.044 61.5181 110.267 61.4406 110.362 61.3334C110.429 61.2608 110.506 61.1501 110.519 60.9274C110.319 60.8672 110.011 60.8285 109.721 60.8285V60.8292ZM110.499 57.8211C110.137 57.9422 109.877 58.0846 109.662 58.2804C109.442 58.4768 109.336 58.6421 109.336 58.7874C109.336 58.9451 109.581 58.97 109.686 58.9734L109.764 58.9748C109.962 58.9748 110.231 58.952 110.506 58.9126C110.506 58.7313 110.499 57.9913 110.499 57.8211Z" fill="#977CDB"/>
<path d="M108.007 57.2602C108.177 57.4671 108.325 57.5625 108.805 57.5701C109.27 57.5777 109.935 57.5113 110.541 57.3854C110.541 57.1344 110.541 56.9352 110.533 56.7214C110.526 56.5001 110.497 56.323 110.445 56.22C110.408 56.146 110.341 56.0872 110.215 56.0796C110.105 56.072 110.016 56.0796 109.964 56.0872L109.934 55.9689C110.075 55.8582 110.222 55.814 110.355 55.814C110.466 55.814 110.732 55.9025 110.954 56.0277C111.065 56.0941 111.139 56.1826 111.139 56.2566C111.139 56.323 111.109 56.3528 111.065 56.4192C110.991 56.5298 110.961 56.6108 110.954 56.729C110.939 56.9137 110.932 57.061 110.924 57.3045C111.315 57.2305 111.574 57.1641 111.781 57.0908C111.9 57.0465 111.988 57.0099 112.099 56.9504C112.21 56.8916 112.291 56.8618 112.461 56.8618C112.616 56.8618 112.749 56.9504 112.749 57.1053C112.749 57.1938 112.66 57.2457 112.468 57.3121C112.129 57.4152 111.552 57.5625 110.902 57.696V58.8836C111.257 58.8096 111.508 58.7287 111.648 58.6699C111.707 58.6401 111.766 58.6111 111.825 58.5516C111.877 58.4997 112.017 58.4631 112.15 58.4631C112.364 58.4631 112.468 58.5592 112.468 58.6554C112.468 58.7363 112.416 58.7951 112.305 58.8469C111.994 58.9874 111.603 59.0904 110.916 59.2232C110.916 59.6735 110.946 60.1528 110.975 60.6245C111.418 60.7276 111.972 60.9489 112.349 61.1855C112.623 61.348 112.726 61.4732 112.726 61.6503C112.726 61.7983 112.623 61.9083 112.497 61.9083C112.4 61.9083 112.297 61.8564 112.135 61.7243C111.706 61.3778 111.337 61.1267 110.982 61.0015C110.975 61.2816 110.849 61.5327 110.687 61.6655C110.473 61.8426 110.155 61.9166 109.86 61.9166C109.203 61.9166 108.759 61.6807 108.759 61.2228C108.759 60.839 109.21 60.5 109.904 60.5C110.133 60.5 110.37 60.5146 110.584 60.5519C110.569 60.1314 110.562 59.7261 110.554 59.3055C110.237 59.3498 109.904 59.3574 109.667 59.3574C109.18 59.3574 108.966 59.2246 108.966 58.8781C108.966 58.5537 109.306 58.1995 109.845 57.8378V57.8233C109.49 57.8897 109.135 57.9339 108.907 57.9263C108.256 57.9042 108.057 57.8157 107.865 57.3585L108.005 57.2623L108.007 57.2602ZM109.721 60.7864C109.3 60.7864 109.042 60.9489 109.042 61.1924C109.042 61.4137 109.278 61.5611 109.832 61.5611C110.039 61.5611 110.283 61.4871 110.393 61.3619C110.482 61.2657 110.556 61.1329 110.564 60.8971C110.364 60.8307 110.039 60.7864 109.721 60.7864ZM110.542 57.7624C110.15 57.8876 109.869 58.0349 109.633 58.2493C109.419 58.4409 109.293 58.618 109.293 58.7882C109.293 58.9355 109.456 59.0095 109.685 59.0171C109.884 59.0247 110.202 59.0026 110.549 58.9507C110.549 58.5668 110.542 58.1394 110.542 57.7631V57.7624Z" fill="#977CDB"/>
<path d="M119.015 61.589C118.517 61.589 118.028 61.5731 117.529 61.3794C116.696 61.0585 116.238 60.4208 116.238 59.5838C116.238 58.8341 116.607 58.1417 117.337 57.522C116.617 57.7495 115.902 58.0165 115.41 58.2074L115.315 58.242C115.137 58.3056 115.057 58.3347 114.959 58.3956C114.89 58.4343 114.833 58.4523 114.756 58.4613H114.756C114.663 58.4613 114.519 58.4142 114.414 58.3257C114.156 58.1334 114.007 57.9321 114.007 57.7765C114.007 57.7156 114.007 57.6403 114.023 57.5413L114.027 57.5081L114.185 57.4957L114.198 57.5192C114.307 57.7156 114.469 57.8104 114.689 57.8104C114.713 57.8104 114.738 57.809 114.762 57.8069C114.946 57.7903 115.156 57.7475 115.405 57.6755C116.206 57.448 117.576 57.0468 118.802 56.665C118.872 56.6415 118.933 56.6027 118.987 56.5682C119.079 56.5073 119.153 56.4858 119.236 56.4858H119.279C119.436 56.4852 119.626 56.5204 119.741 56.5702C119.9 56.6463 119.98 56.7584 119.98 56.9043C119.98 57.062 119.807 57.1028 119.526 57.1167C118.925 57.1506 118.451 57.2792 117.94 57.5469C117.226 57.9183 116.707 58.7366 116.707 59.4932C116.707 60.5695 117.746 60.97 118.401 60.97C118.656 60.97 118.742 60.97 118.81 60.9499C118.876 60.9278 118.957 60.9181 119.081 60.9181C119.243 60.9181 119.545 61.0668 119.545 61.2784C119.545 61.3933 119.475 61.5869 119.014 61.5869L119.015 61.589ZM119.717 59.2574C119.557 59.2574 119.494 59.1516 119.381 58.96L119.347 58.9046C119.227 58.7137 118.986 58.4364 118.706 58.2856L118.674 58.2683L118.742 58.0739L118.779 58.0808C119.14 58.1486 119.493 58.298 119.721 58.4806C119.881 58.6141 119.974 58.785 119.974 58.9489C119.974 59.1301 119.868 59.2574 119.717 59.2574ZM120.426 58.6453C120.315 58.6453 120.228 58.5705 120.094 58.3596C119.95 58.1293 119.656 57.8754 119.38 57.7405L119.347 57.7246L119.405 57.5282L119.443 57.5344C119.861 57.6064 120.179 57.7246 120.414 57.8962C120.63 58.049 120.675 58.2157 120.675 58.3292C120.675 58.5367 120.549 58.6446 120.425 58.6446L120.426 58.6453Z" fill="#977CDB"/>
<path d="M114.16 57.5403C114.301 57.7914 114.515 57.8723 114.767 57.8502C114.929 57.8357 115.136 57.7983 115.417 57.7174C116.326 57.4594 117.678 57.061 118.816 56.7069C118.905 56.6771 118.979 56.6259 119.038 56.5886C119.104 56.5443 119.171 56.5298 119.237 56.5298C119.4 56.5222 119.606 56.5595 119.725 56.6107C119.88 56.6847 119.939 56.7878 119.939 56.9054C119.939 57.016 119.82 57.0603 119.525 57.0755C119.001 57.1053 118.499 57.2083 117.922 57.5106C117.198 57.8869 116.666 58.7058 116.666 59.495C116.666 60.5574 117.656 61.0146 118.402 61.0146C118.661 61.0146 118.749 61.0146 118.824 60.9925C118.89 60.9703 118.971 60.9627 119.082 60.9627C119.237 60.9627 119.503 61.1031 119.503 61.2802C119.503 61.4427 119.348 61.5458 119.015 61.5458C118.528 61.5458 118.04 61.5313 117.545 61.339C116.799 61.0513 116.282 60.4758 116.282 59.5835C116.282 58.8462 116.643 58.1082 117.538 57.4144C116.74 57.6579 115.927 57.9602 115.395 58.167C115.151 58.2555 115.055 58.2853 114.937 58.3586C114.871 58.3952 114.819 58.4105 114.752 58.4174C114.671 58.4174 114.538 58.3731 114.442 58.2915C114.205 58.1144 114.05 57.9228 114.05 57.7748C114.05 57.716 114.05 57.642 114.065 57.5466L114.161 57.5389L114.16 57.5403ZM118.771 58.1234C119.126 58.1898 119.473 58.3371 119.694 58.5142C119.827 58.6249 119.931 58.7798 119.931 58.9493C119.931 59.1187 119.834 59.2149 119.717 59.2149C119.569 59.2149 119.517 59.1042 119.384 58.8829C119.259 58.6837 119.015 58.4035 118.727 58.2486L118.771 58.1234ZM119.436 57.5777C119.82 57.6441 120.145 57.7547 120.389 57.9318C120.567 58.057 120.633 58.1974 120.633 58.3302C120.633 58.4997 120.537 58.6027 120.426 58.6027C120.345 58.6027 120.271 58.5585 120.131 58.3371C119.983 58.1013 119.687 57.8426 119.399 57.7029L119.436 57.5777Z" fill="#977CDB"/>
<path d="M125.633 62.3342L125.629 62.2955C125.61 62.0852 125.48 61.9981 125.027 61.8902L124.992 61.8819L125.003 61.6543L125.047 61.6578C125.312 61.6799 125.503 61.6944 125.724 61.6944C125.901 61.6944 125.947 61.6453 125.947 61.4572V59.4569H121.682L120.9 59.4956V59.0889L121.684 59.1276H126.714C126.806 58.9762 126.904 58.8537 127.088 58.6545L127.114 58.6269L127.144 58.649C127.886 59.185 127.886 59.2764 127.886 59.3255C127.886 59.4029 127.82 59.4569 127.725 59.4569H126.626C126.598 59.5274 126.553 59.5634 126.504 59.5883V60.188C126.504 60.6389 126.515 60.9675 126.523 61.2345C126.529 61.4171 126.533 61.5713 126.533 61.7152C126.533 62.0852 126.186 62.3335 125.67 62.3335H125.631L125.633 62.3342ZM122.228 62.0098C122.07 62.0098 122.052 61.9026 122.052 61.8563C122.052 61.7947 122.055 61.7207 122.058 61.6197C122.064 61.4046 122.075 61.0671 122.075 60.4695C122.075 60.1741 122.068 59.9825 122.052 59.8096L122.047 59.7474L122.107 59.7647C122.413 59.8525 122.604 59.9224 122.708 59.9825L124.071 59.977C124.166 59.7993 124.241 59.7259 124.326 59.7259C124.418 59.7259 124.495 59.7661 124.671 59.9051C124.817 60.0206 124.879 60.1036 124.879 60.1817C124.879 60.289 124.803 60.3512 124.643 60.4363V60.5283C124.643 60.8485 124.651 61.0491 124.658 61.2006C124.662 61.294 124.665 61.3693 124.665 61.4427C124.665 61.6301 124.428 61.7138 124.26 61.7138C124.161 61.7138 124.098 61.655 124.098 61.5603V61.4772H122.618V61.7221C122.618 61.8957 122.465 62.0085 122.228 62.0085L122.228 62.0098ZM124.099 61.1494V60.3056H122.652L122.606 60.3519L122.618 61.1494H124.099ZM121.624 58.8925L121.667 58.8849C122.072 58.8157 122.65 58.6725 123.107 58.382C123.405 58.1884 123.589 58.0044 123.724 57.7602H122.657L121.876 57.7989V57.3922L122.659 57.431H123.868C123.944 57.1903 123.999 56.8984 124.033 56.5401L124.037 56.4951L124.082 56.5014C124.69 56.5906 124.798 56.6438 124.798 56.7504C124.798 56.8652 124.697 56.9226 124.542 56.9682C124.517 57.1239 124.483 57.276 124.436 57.4303H125.827C125.919 57.2788 126.017 57.1571 126.202 56.9572L126.227 56.9295L126.258 56.951C126.944 57.4393 127 57.5458 127 57.6274C127 57.709 126.933 57.7588 126.838 57.7588H124.312C124.298 57.7948 124.283 57.8294 124.264 57.8647C124.779 57.9221 125.343 58.0722 125.719 58.2527C126.089 58.4325 126.268 58.6096 126.268 58.7929C126.268 58.9762 126.174 59.0647 126.003 59.0647C125.848 59.0647 125.739 58.9817 125.591 58.8551C125.199 58.5349 124.662 58.2617 124.114 58.1047C123.906 58.3799 123.633 58.5957 123.281 58.7652C122.865 58.9686 122.35 59.0841 121.705 59.1159L121.669 59.1173L121.623 58.8904L121.624 58.8925ZM121.401 57.3549C121.205 57.3549 121.078 57.2456 121.078 57.0761C121.078 56.9067 121.184 56.8361 121.297 56.7642C121.691 56.5055 121.852 56.2648 121.883 55.9141L121.887 55.8754H122.113C122.113 55.8754 122.127 56.0974 122.128 56.1258H124.151V55.9992C124.151 55.8228 124.143 55.6395 124.129 55.3968L124.126 55.3477L124.175 55.3518C124.86 55.4099 124.998 55.4846 124.998 55.5863C124.998 55.688 124.918 55.753 124.724 55.8228V56.1258H126.879C127.009 55.8823 127.065 55.838 127.149 55.838C127.228 55.838 127.304 55.8747 127.554 56.0919C127.778 56.2939 127.812 56.3402 127.812 56.4488C127.812 56.5574 127.705 56.6252 127.417 56.6895C127.268 56.8382 127.068 56.9945 126.803 57.1702L126.781 57.1854L126.596 57.0775L126.616 57.0416C126.723 56.8403 126.802 56.6528 126.862 56.455H122.12C122.069 56.9627 121.758 57.3549 121.401 57.3549H121.401Z" fill="#977CDB"/>
<path d="M126.595 59.4147C126.573 59.4957 126.529 59.533 126.462 59.5621V60.1887C126.462 60.9489 126.492 61.3618 126.492 61.7159C126.492 62.0701 126.167 62.2914 125.672 62.2914C125.649 62.0555 125.502 61.9594 125.036 61.8487L125.044 61.7014C125.31 61.7235 125.502 61.7381 125.724 61.7381C125.931 61.7381 125.99 61.664 125.99 61.4579V59.4147H121.682L120.943 59.4514V59.1346L121.682 59.1713H126.714C126.847 58.9942 126.943 58.8766 127.12 58.6843C127.763 59.1491 127.844 59.2743 127.844 59.3262C127.844 59.3781 127.8 59.4147 127.726 59.4147H126.595ZM124.194 56.1687V55.9993C124.194 55.8222 124.186 55.6382 124.172 55.394C124.785 55.4459 124.955 55.5123 124.955 55.5863C124.955 55.6451 124.918 55.7115 124.681 55.7924V56.1687H126.905C127.045 55.9031 127.09 55.881 127.149 55.881C127.215 55.881 127.289 55.9176 127.525 56.1244C127.747 56.3236 127.769 56.3603 127.769 56.4488C127.769 56.5229 127.703 56.5816 127.407 56.648C127.259 56.7885 127.068 56.9434 126.779 57.135L126.653 57.061C126.779 56.8251 126.86 56.6183 126.919 56.4115H122.08C122.043 56.9206 121.74 57.3114 121.4 57.3114C121.237 57.3114 121.119 57.2304 121.119 57.0755C121.119 56.9206 121.223 56.8618 121.349 56.7802C121.674 56.5664 121.888 56.3299 121.925 55.9169H122.073C122.081 55.9979 122.081 56.0788 122.088 56.1673H124.193L124.194 56.1687ZM123.898 57.4746C123.979 57.2311 124.039 56.9289 124.075 56.545C124.682 56.6335 124.755 56.6854 124.755 56.7518C124.755 56.8327 124.689 56.8846 124.504 56.9365C124.474 57.1357 124.43 57.3127 124.378 57.4753H125.827C125.96 57.2982 126.055 57.1799 126.233 56.9883C126.876 57.4455 126.957 57.5638 126.957 57.6302C126.957 57.6821 126.913 57.7188 126.839 57.7188H124.283C124.26 57.7852 124.231 57.8439 124.194 57.9034C124.726 57.9553 125.317 58.1095 125.701 58.2942C126.004 58.4415 126.226 58.6117 126.226 58.7957C126.226 58.9361 126.159 59.0246 126.004 59.0246C125.871 59.0246 125.775 58.9582 125.62 58.8254C125.213 58.4934 124.652 58.2133 124.098 58.0584C123.898 58.3316 123.632 58.5529 123.263 58.73C122.827 58.9437 122.295 59.0468 121.704 59.0765L121.674 58.9292C122.192 58.8406 122.723 58.6781 123.13 58.4201C123.426 58.2278 123.64 58.0293 123.795 57.7194H122.657L121.918 57.7561V57.4393L122.657 57.476H123.898V57.4746ZM124.098 60.0193C124.208 59.8055 124.275 59.7689 124.327 59.7689C124.401 59.7689 124.468 59.7986 124.645 59.9383C124.785 60.049 124.837 60.123 124.837 60.1818C124.837 60.2627 124.785 60.3146 124.601 60.4107V60.529C124.601 61.0457 124.623 61.2518 124.623 61.4441C124.623 61.599 124.416 61.6723 124.26 61.6723C124.179 61.6723 124.142 61.6281 124.142 61.5617V61.4358H122.576V61.7235C122.576 61.8854 122.42 61.967 122.228 61.967C122.14 61.967 122.095 61.9303 122.095 61.8563C122.095 61.6647 122.118 61.3473 122.118 60.4695C122.118 60.1527 122.11 59.9681 122.095 59.8055C122.428 59.9017 122.598 59.9681 122.686 60.0193H124.098ZM124.142 60.2627H122.634L122.576 60.3215V61.1923H124.142V60.2627Z" fill="#977CDB"/>
<path d="M129.646 61.8758L129.687 61.8606C131.186 61.2982 131.854 60.2345 131.854 58.4112C131.854 57.4574 131.622 56.8162 131.276 56.8162C131.029 56.8162 130.899 56.9725 130.76 57.243C130.481 57.77 130.23 58.4333 130.091 59.0185C130.052 59.1935 130.011 59.4183 130.011 59.5248C130.011 59.6071 130.021 59.686 130.03 59.7614C130.039 59.8347 130.048 59.9059 130.048 59.9751C130.048 60.1764 129.953 60.3057 129.806 60.3057C129.721 60.3057 129.635 60.2462 129.563 60.139C129.331 59.7952 129.312 58.9895 129.312 58.7508C129.312 58.2252 129.377 57.6649 129.527 56.8764C129.564 56.6952 129.6 56.4406 129.6 56.2795C129.6 56.1896 129.569 56.0644 129.523 55.9738C129.498 55.924 129.459 55.8693 129.404 55.8057L129.38 55.778L129.531 55.5947L129.563 55.6155C129.716 55.7151 129.919 55.9018 130.028 56.0955C130.124 56.2636 130.145 56.3964 130.145 56.478C130.145 56.6246 130.091 56.8128 130.039 56.9781C129.85 57.584 129.738 58.2162 129.738 58.6692C129.738 58.7072 129.738 58.7619 129.739 58.8311C129.959 58.1823 130.211 57.5584 130.426 57.1586C130.688 56.6717 130.981 56.4351 131.32 56.4351C131.818 56.4351 132.413 56.8356 132.413 58.7425C132.413 60.5243 131.579 61.5991 129.788 62.1255L129.751 62.1366L129.646 61.8751V61.8758Z" fill="#977CDB"/>
<path d="M129.54 55.6518C129.687 55.7479 129.887 55.9319 129.991 56.1166C130.079 56.2715 130.101 56.3967 130.101 56.4776C130.101 56.6256 130.043 56.8242 129.998 56.9646C129.799 57.6064 129.695 58.2331 129.695 58.6688C129.695 58.7352 129.695 58.8535 129.703 59.0078L129.74 59.0002C129.976 58.2476 130.25 57.5767 130.464 57.1783C130.722 56.699 131.003 56.4776 131.321 56.4776C131.971 56.4776 132.37 57.208 132.37 58.7422C132.37 60.4091 131.661 61.5303 129.777 62.0836L129.703 61.8989C131.432 61.2502 131.898 59.9955 131.898 58.4095C131.898 57.3913 131.639 56.7716 131.277 56.7716C130.996 56.7716 130.856 56.9632 130.723 57.2219C130.457 57.7233 130.198 58.3873 130.051 59.0071C130.014 59.1696 129.97 59.4055 129.97 59.5238C129.97 59.6863 130.006 59.8336 130.006 59.974C130.006 60.1442 129.932 60.2618 129.807 60.2618C129.733 60.2618 129.659 60.203 129.6 60.1137C129.43 59.8634 129.356 59.2879 129.356 58.7491C129.356 58.1515 129.445 57.5393 129.57 56.8823C129.607 56.6983 129.644 56.4396 129.644 56.2777C129.644 56.1747 129.607 56.0419 129.563 55.9533C129.533 55.8946 129.489 55.8351 129.438 55.7763L129.541 55.6504L129.54 55.6518Z" fill="#977CDB"/>
<path d="M134.668 62.2012C134.474 62.2012 134.359 62.0774 134.359 61.8705C134.359 61.8041 134.366 61.7288 134.376 61.6361C134.391 61.4874 134.411 61.3027 134.411 61.0371C134.411 60.7715 134.346 60.6504 133.98 60.5854L133.943 60.5785L133.955 60.3675H133.996C134.267 60.3675 134.463 60.297 134.606 59.9442L135.884 56.7349L136.141 56.8206L135.145 59.8564C134.981 60.3558 134.911 60.6428 134.911 60.8164C134.911 61.0357 134.961 61.2238 135.006 61.3891C135.045 61.5323 135.081 61.6679 135.081 61.8048C135.081 62.0642 134.938 62.2019 134.668 62.2019L134.668 62.2012ZM137.115 62.1936L137.108 62.159C137.066 61.9349 136.971 61.8118 136.543 61.7205L136.506 61.7128L136.529 61.4825L136.574 61.4887C136.801 61.5212 137.034 61.5399 137.21 61.5399C137.306 61.5399 137.352 61.5088 137.352 61.3317V59.8785C137.352 59.5002 137.345 59.3363 137.331 59.0181L137.329 58.969L137.377 58.9441C138.036 59.0098 138.148 59.0603 138.148 59.1786C138.148 59.265 138.067 59.3307 137.881 59.3937V59.9159C137.881 60.6006 137.902 61.0025 137.914 61.2681C137.921 61.4009 137.926 61.4998 137.926 61.5835C137.926 61.966 137.636 62.1942 137.151 62.1942H137.116L137.115 62.1936ZM139.071 61.6036C138.919 61.6036 138.809 61.4991 138.777 61.3248C138.685 60.8545 138.458 60.4277 138.14 60.1234L138.108 60.0929L138.265 59.9373L138.292 59.9512C138.987 60.2977 139.35 60.8566 139.35 61.2287C139.35 61.5669 139.155 61.6036 139.071 61.6036ZM140.268 61.5226C140.128 61.5226 140.024 61.4251 139.976 61.248C139.848 60.7978 139.609 60.3883 139.285 60.0646L139.255 60.0342L139.41 59.8792L139.437 59.8924C140.159 60.241 140.548 60.7991 140.548 61.1477C140.548 61.3961 140.454 61.5226 140.269 61.5226H140.268ZM136.064 61.4929C135.899 61.4929 135.784 61.3781 135.784 61.2141C135.784 61.0793 135.845 60.9734 135.992 60.8496C136.243 60.6387 136.39 60.3482 136.405 60.0321L136.407 59.9913H136.65L136.653 60.0307C136.668 60.2237 136.675 60.3724 136.675 60.5432C136.675 61.0163 136.486 61.4936 136.064 61.4936V61.4929ZM135.324 59.7644L135.365 59.7443C136.422 59.236 137.139 58.5014 137.495 57.5607H136.714L136.05 57.6002V57.1921L136.716 57.2315H137.604C137.663 57.0074 137.706 56.7722 137.737 56.4983C137.157 56.5841 136.612 56.6422 136.074 56.6747L136.033 56.6775L136.01 56.4485L136.051 56.443C137.285 56.2659 138.544 55.9388 139.506 55.5459C140.018 55.8329 140.09 55.9097 140.09 56.028C140.09 56.1518 139.941 56.1518 139.884 56.1518C139.809 56.1518 139.71 56.1442 139.574 56.1214C139.21 56.2175 138.832 56.3026 138.435 56.3814C138.416 56.4568 138.371 56.5059 138.291 56.5384C138.261 56.8027 138.22 57.0254 138.161 57.2315H139.433C139.559 57.0572 139.692 56.9106 139.861 56.7425L139.887 56.7162L139.917 56.739C140.615 57.2751 140.651 57.3353 140.651 57.4293C140.651 57.5068 140.584 57.5607 140.489 57.5607H138.25C138.761 58.4412 139.623 59.0084 140.815 59.2463L140.865 59.256L140.786 59.4704L140.757 59.4718C140.527 59.4794 140.37 59.6385 140.306 59.772L140.29 59.8059L140.254 59.7941C139.236 59.458 138.402 58.6771 138.005 57.6949C137.57 58.7393 136.697 59.5175 135.471 59.9491L135.438 59.9608L135.323 59.7651L135.324 59.7644ZM134.72 58.6895C134.562 58.6895 134.494 58.6086 134.422 58.4585C134.296 58.1929 134.138 58.0435 133.892 57.9571L133.852 57.9425L133.929 57.7323L133.96 57.7337C134.62 57.7551 135.014 57.9861 135.014 58.352C135.014 58.5637 134.904 58.6895 134.72 58.6895H134.72ZM135.317 56.6761C135.179 56.6761 135.087 56.6042 135.013 56.4368C134.889 56.1781 134.716 56.0252 134.432 55.9284L134.394 55.9152L134.45 55.7043H134.483C135.142 55.7126 135.619 55.9761 135.619 56.3303C135.619 56.5467 135.466 56.6754 135.317 56.6754V56.6761Z" fill="#977CDB"/>
<path d="M133.958 57.7769C134.638 57.7991 134.97 58.0426 134.97 58.3524C134.97 58.544 134.874 58.6471 134.719 58.6471C134.593 58.6471 134.534 58.5952 134.461 58.4403C134.328 58.1601 134.158 58.0052 133.907 57.9167L133.959 57.7763L133.958 57.7769ZM136.086 56.8473L135.103 59.8423C134.933 60.359 134.867 60.6391 134.867 60.8162C134.867 61.2291 135.037 61.5168 135.037 61.8046C135.037 62.0114 134.94 62.1587 134.667 62.1587C134.498 62.1587 134.401 62.0556 134.401 61.871C134.401 61.7015 134.453 61.4726 134.453 61.0375C134.453 60.7498 134.357 60.6093 133.988 60.5436L133.995 60.4108C134.268 60.4108 134.491 60.3444 134.645 59.9606L135.909 56.7886L136.086 56.8473H136.086ZM134.482 55.7483C135.096 55.7559 135.576 55.9917 135.576 56.3314C135.576 56.5229 135.443 56.6336 135.317 56.6336C135.192 56.6336 135.118 56.5672 135.051 56.4199C134.918 56.1398 134.726 55.9848 134.445 55.8887L134.482 55.7483H134.482ZM140.756 59.4294C140.526 59.437 140.349 59.5843 140.268 59.7537C139.197 59.3996 138.377 58.5807 138.007 57.5777C137.564 58.7356 136.611 59.5027 135.459 59.9087L135.384 59.7828C136.397 59.2959 137.18 58.5655 137.557 57.5183H136.715L136.094 57.5549V57.2381L136.715 57.2748H137.638C137.712 57.0023 137.757 56.7291 137.786 56.4489C137.246 56.5299 136.677 56.5963 136.072 56.6336L136.057 56.4863C137.343 56.3016 138.584 55.9696 139.522 55.5864C140.003 55.8742 140.047 55.9406 140.047 56.0291C140.047 56.081 140.01 56.11 139.884 56.11C139.81 56.11 139.714 56.1024 139.581 56.0803C139.204 56.1764 138.813 56.265 138.399 56.3459C138.385 56.4344 138.341 56.4787 138.252 56.5084C138.222 56.7809 138.178 57.032 138.104 57.2755H139.434C139.582 57.0984 139.715 56.9511 139.892 56.774C140.565 57.2907 140.609 57.3564 140.609 57.4304C140.609 57.4823 140.565 57.519 140.491 57.519H138.178C138.659 58.3898 139.516 59.0309 140.809 59.2896L140.757 59.43L140.756 59.4294ZM136.611 60.0339C136.625 60.2255 136.633 60.3728 136.633 60.5429C136.633 61.0223 136.441 61.4504 136.064 61.4504C135.931 61.4504 135.828 61.3619 135.828 61.2146C135.828 61.0963 135.88 61.0008 136.02 60.8826C136.301 60.6467 136.434 60.3368 136.449 60.0346H136.612L136.611 60.0339ZM136.566 61.5313C136.825 61.568 137.054 61.5832 137.209 61.5832C137.342 61.5832 137.394 61.5168 137.394 61.3321V59.8789C137.394 59.4881 137.387 59.3256 137.372 58.9867C138.037 59.0531 138.104 59.105 138.104 59.1783C138.104 59.2371 138.045 59.2966 137.838 59.363V59.9163C137.838 60.9413 137.882 61.3328 137.882 61.5832C137.882 61.9519 137.601 62.1511 137.15 62.1511C137.106 61.9152 137.003 61.7748 136.552 61.6787L136.566 61.5307V61.5313ZM138.273 59.9896C138.967 60.3361 139.307 60.8826 139.307 61.2291C139.307 61.4504 139.218 61.5611 139.071 61.5611C138.945 61.5611 138.849 61.4802 138.819 61.3176C138.731 60.8673 138.517 60.4247 138.169 60.0934L138.273 59.9903V59.9896ZM139.418 59.9308C140.135 60.2773 140.504 60.8307 140.504 61.1482C140.504 61.3695 140.43 61.4802 140.268 61.4802C140.149 61.4802 140.061 61.3992 140.017 61.2367C139.891 60.794 139.655 60.3735 139.315 60.0346L139.419 59.9315L139.418 59.9308Z" fill="#977CDB"/>
<path d="M142.48 61.8117L142.519 61.8C143.902 61.387 144.727 60.456 144.727 59.3106C144.727 58.5775 144.435 58.1735 143.905 58.1735C143.576 58.1735 143.234 58.3374 142.915 58.648L142.849 58.7137C142.772 58.7898 142.708 58.8514 142.646 58.9316C142.598 58.9952 142.545 59.0589 142.472 59.0589C142.364 59.0589 142.274 59.0181 142.169 58.9219C142.06 58.8209 141.949 58.6176 141.949 58.4253C141.949 58.1279 142.051 57.8685 142.29 57.5579C142.53 57.2453 142.979 56.8746 143.501 56.555C143.041 56.3911 142.766 56.1421 142.638 55.7762L142.628 55.7451L142.829 55.6074L142.854 55.6399C143.121 55.9948 143.658 56.1248 144.039 56.1912C144.51 56.2624 144.784 56.36 144.784 56.6463C144.784 56.8047 144.68 56.9029 144.511 56.9029C144.425 56.9029 144.346 56.8939 144.265 56.8842C144.185 56.8753 144.105 56.8656 144.017 56.8656C143.864 56.8656 143.628 56.9437 143.387 57.0745C143.025 57.2771 142.761 57.4908 142.581 57.7267C142.452 57.8975 142.405 58.0144 142.405 58.1583C142.405 58.1922 142.415 58.2704 142.51 58.2704C142.54 58.2704 142.62 58.2468 142.829 58.1355C143.276 57.8975 143.62 57.791 143.943 57.791C144.79 57.791 145.338 58.4191 145.338 59.3902C145.338 60.75 144.282 61.7751 142.583 62.0656L142.544 62.0725L142.481 61.8096L142.48 61.8117Z" fill="#977CDB"/>
<path d="M142.531 61.8409C143.765 61.4722 144.77 60.609 144.77 59.3107C144.77 58.5513 144.453 58.1307 143.905 58.1307C143.573 58.1307 143.218 58.2933 142.886 58.6177C142.775 58.7283 142.693 58.8023 142.612 58.9054C142.568 58.9642 142.523 59.0161 142.471 59.0161C142.375 59.0161 142.294 58.9794 142.198 58.8909C142.101 58.8023 141.991 58.6107 141.991 58.4261C141.991 58.1238 142.102 57.8727 142.324 57.585C142.59 57.2385 143.092 56.8477 143.602 56.5447C143.114 56.3898 142.811 56.1463 142.678 55.7631L142.819 55.667C143.085 56.0211 143.61 56.1615 144.031 56.2349C144.518 56.3089 144.74 56.4043 144.74 56.6478C144.74 56.7882 144.651 56.8622 144.511 56.8622C144.341 56.8622 144.194 56.8255 144.016 56.8255C143.86 56.8255 143.624 56.8995 143.366 57.0393C143.063 57.2087 142.76 57.4231 142.545 57.7033C142.412 57.8803 142.36 58.0055 142.36 58.1605C142.36 58.2414 142.405 58.3154 142.509 58.3154C142.545 58.3154 142.627 58.2933 142.848 58.175C143.292 57.9391 143.624 57.8361 143.941 57.8361C144.769 57.8361 145.294 58.4627 145.294 59.3923C145.294 60.8455 144.126 61.7599 142.575 62.0255L142.53 61.8409H142.531Z" fill="#977CDB"/>
<path d="M146.876 60.701L146.915 60.6816C147.993 60.131 148.782 59.4698 149.551 58.4717C149.66 58.3299 149.72 58.195 149.72 58.0906C149.72 57.9647 149.58 57.8575 149.251 57.7323L149.217 57.7199L149.256 57.502L149.289 57.4992C149.406 57.4902 149.496 57.4902 149.576 57.4902C149.729 57.4902 149.985 57.5725 150.215 57.7565C150.469 57.9599 150.639 58.1335 150.639 58.3209C150.639 58.4122 150.59 58.5381 150.452 58.5914C150.367 58.6259 150.261 58.7463 150.221 58.7919C149.324 59.8232 148.349 60.4955 147.056 60.9728L147.02 60.9859L146.877 60.701H146.876ZM154.124 60.3019C153.946 60.3019 153.804 60.176 153.678 59.9055C153.265 59.0257 152.643 58.3375 151.662 57.6742L151.63 57.6528L151.782 57.3726L151.817 57.3872C152.897 57.8181 153.621 58.3569 154.239 59.189C154.403 59.4103 154.487 59.6337 154.487 59.8516C154.487 60.1331 154.302 60.3019 154.124 60.3019ZM153.849 57.2391C153.351 57.2391 152.946 56.8269 152.946 56.3199C152.946 55.8129 153.351 55.4097 153.849 55.4097C154.347 55.4097 154.761 55.8178 154.761 56.3199C154.761 56.8221 154.361 57.2391 153.849 57.2391ZM153.849 55.8233C153.574 55.8233 153.343 56.0509 153.343 56.3206C153.343 56.6042 153.565 56.8262 153.849 56.8262C154.133 56.8262 154.356 56.6042 154.356 56.3206C154.356 56.037 154.124 55.8233 153.849 55.8233Z" fill="#977CDB"/>
<path d="M149.292 57.5422C149.407 57.5332 149.496 57.5332 149.576 57.5332C149.718 57.5332 149.966 57.6127 150.188 57.7898C150.454 58.0021 150.596 58.1619 150.596 58.321C150.596 58.4005 150.552 58.5071 150.437 58.5513C150.348 58.5866 150.251 58.6931 150.189 58.7637C149.257 59.8351 148.265 60.4811 147.041 60.9328L146.935 60.7204C148.096 60.1276 148.876 59.4194 149.586 58.4988C149.701 58.3487 149.763 58.2069 149.763 58.0914C149.763 57.9233 149.569 57.8078 149.266 57.693L149.293 57.5429L149.292 57.5422ZM151.801 57.4267C152.954 57.8866 153.646 58.4621 154.204 59.2146C154.381 59.454 154.444 59.6663 154.444 59.8517C154.444 60.0993 154.284 60.2591 154.124 60.2591C153.974 60.2591 153.84 60.1525 153.716 59.8869C153.256 58.9041 152.563 58.2318 151.686 57.6383L151.801 57.426L151.801 57.4267ZM154.719 56.32C154.719 56.8069 154.338 57.1963 153.85 57.1963C153.362 57.1963 152.989 56.8069 152.989 56.32C152.989 55.8331 153.371 55.4526 153.85 55.4526C154.329 55.4526 154.719 55.8421 154.719 56.32ZM153.3 56.32C153.3 56.6299 153.548 56.8685 153.849 56.8685C154.151 56.8685 154.399 56.6292 154.399 56.32C154.399 56.0274 154.151 55.7798 153.849 55.7798C153.548 55.7798 153.3 56.0274 153.3 56.32Z" fill="#977CDB"/>
<path d="M156.452 59.3551C156.261 59.3551 156.063 59.2182 155.825 58.9235C155.643 58.6994 155.555 58.5424 155.498 58.3418L155.488 58.3086L155.716 58.189L155.738 58.2118C156.043 58.5244 156.162 58.5977 156.633 58.5977L157.075 58.5894C158.183 58.5666 159.08 58.5486 160.272 58.5085C161.051 58.4753 161.561 58.4255 161.786 58.3598C162.113 58.3875 162.329 58.4366 162.483 58.5134C162.663 58.5901 162.702 58.707 162.702 58.7907C162.702 59.0515 162.46 59.0992 161.985 59.0992L160.75 59.0978C159.713 59.0978 158.379 59.1414 157.182 59.214C157.019 59.2237 156.82 59.2507 156.74 59.2742C156.72 59.2811 156.699 59.2901 156.676 59.2991C156.611 59.3254 156.539 59.3558 156.453 59.3558L156.452 59.3551Z" fill="#977CDB"/>
<path d="M155.707 58.2407C156.026 58.5686 156.15 58.6481 156.709 58.6391C157.994 58.6128 158.952 58.5949 160.273 58.5506C161.106 58.5153 161.585 58.4621 161.798 58.4005C162.082 58.4268 162.303 58.471 162.463 58.5506C162.587 58.6038 162.658 58.6834 162.658 58.7899C162.658 58.985 162.516 59.0555 161.984 59.0555H161.053C160.087 59.0465 158.633 59.0818 157.179 59.1703C157.02 59.1793 156.815 59.2056 156.727 59.2326C156.647 59.2589 156.558 59.3121 156.452 59.3121C156.301 59.3121 156.115 59.2146 155.858 58.8964C155.672 58.6661 155.592 58.516 155.539 58.3299L155.707 58.2414V58.2407Z" fill="#977CDB"/>
<path d="M163.796 61.9442L163.834 61.9221C165.712 60.814 166.971 59.329 167.912 57.1087C168.037 56.8134 168.112 56.5298 168.112 56.4261C168.112 56.3756 168.096 56.3071 168.021 56.2697C167.898 56.1964 167.779 56.1508 167.642 56.1231L167.603 56.1155L167.639 55.8257H167.677C168.239 55.8257 168.421 55.8561 168.785 56.1356C169.051 56.3465 169.103 56.4634 169.103 56.5941C169.103 56.7159 169.003 56.7989 168.908 56.868C168.808 56.9448 168.742 57.0603 168.691 57.1627C168.531 57.4809 168.407 57.7375 168.292 57.9761C167.356 59.9114 165.75 61.4905 163.996 62.2015L163.963 62.2153L163.797 61.9435L163.796 61.9442ZM164.866 58.2666C164.71 58.2666 164.522 58.1435 164.46 57.7976C164.375 57.3474 164.123 56.9199 163.71 56.5284L163.683 56.5028L163.849 56.2773L163.88 56.2905C164.389 56.5084 164.655 56.6875 164.932 57.0008C165.182 57.29 165.298 57.5431 165.298 57.799C165.298 58.0549 165.112 58.2666 164.865 58.2666H164.866Z" fill="#977CDB"/>
<path d="M163.864 56.3291C164.361 56.5414 164.627 56.7185 164.901 57.0284C165.123 57.285 165.256 57.5326 165.256 57.7982C165.256 58.0375 165.096 58.2229 164.866 58.2229C164.715 58.2229 164.555 58.0901 164.502 57.7892C164.404 57.276 164.103 56.8423 163.739 56.4965L163.863 56.3284L163.864 56.3291ZM167.676 55.8691C168.244 55.8691 168.412 55.9044 168.758 56.17C169.015 56.3734 169.059 56.4799 169.059 56.5947C169.059 56.6922 168.979 56.7628 168.882 56.834C168.767 56.9226 168.695 57.0554 168.651 57.1439C168.492 57.4628 168.367 57.7194 168.252 57.958C167.489 59.5336 166.009 61.3396 163.978 62.1627L163.854 61.9593C165.955 60.7198 167.117 59.0909 167.951 57.1259C168.075 56.834 168.154 56.5414 168.154 56.4266C168.154 56.3561 168.128 56.2765 168.039 56.2323C167.906 56.1527 167.782 56.1085 167.649 56.0822L167.676 55.8698L167.676 55.8691Z" fill="#977CDB"/>
<path d="M171.206 62.1785L171.247 62.1591C172.406 61.6175 173.184 60.7661 173.442 60.163C173.691 59.5681 173.812 59.0189 173.853 58.2795C173.112 58.3501 172.452 58.4255 172.034 58.487C171.809 58.5168 171.64 58.5555 171.502 58.6081L171.447 58.6268C171.362 58.6565 171.289 58.6814 171.194 58.6814C171.051 58.6814 170.744 58.4891 170.525 58.2609C170.428 58.164 170.37 58.0423 170.336 57.8673L170.33 57.8327L170.539 57.7469L170.559 57.767C170.74 57.9475 170.856 58.0112 171.15 58.0112C171.335 58.0112 171.476 58.0022 171.687 57.9849C172.332 57.9413 173.189 57.8721 173.875 57.8113C173.883 57.5498 173.892 57.2877 173.892 57.0186C173.892 56.7496 173.883 56.4438 173.874 56.1526C173.867 55.8767 173.802 55.7847 173.434 55.7847L173.297 55.7881V55.5073L173.33 55.499C173.485 55.4589 173.768 55.3911 173.917 55.3911C174.066 55.3911 174.22 55.4305 174.413 55.5191C174.659 55.6277 174.784 55.7452 174.784 55.8677C174.784 55.9368 174.758 55.9998 174.695 56.08C174.606 56.1955 174.587 56.3442 174.58 56.4459C174.566 56.8097 174.558 57.2074 174.551 57.5547L174.546 57.7684C174.871 57.7414 175.126 57.7248 175.344 57.711C175.6 57.6944 175.807 57.6812 176.022 57.6577C176.235 57.6314 176.318 57.6141 176.447 57.5713C176.519 57.5443 176.605 57.5159 176.674 57.5159C176.791 57.5159 177.05 57.6342 177.127 57.6709C177.361 57.7739 177.471 57.904 177.471 58.081C177.471 58.2263 177.351 58.31 177.144 58.31C177.117 58.31 177.082 58.3051 177.018 58.2954C176.936 58.283 176.803 58.2636 176.564 58.2387C176.217 58.209 175.879 58.1945 175.531 58.1945C175.207 58.1945 174.857 58.2111 174.516 58.2277C174.454 59.187 174.325 59.7874 174.07 60.2951C173.589 61.2662 172.765 61.9309 171.396 62.4489L171.361 62.4621L171.206 62.1771L171.206 62.1785Z" fill="#977CDB"/>
<path d="M173.339 55.5411C173.579 55.4788 173.801 55.4346 173.916 55.4346C174.04 55.4346 174.182 55.4609 174.394 55.5584C174.634 55.6642 174.74 55.7707 174.74 55.8682C174.74 55.9215 174.723 55.9741 174.66 56.0536C174.572 56.1684 174.546 56.3102 174.536 56.443C174.518 56.903 174.51 57.4169 174.501 57.8153C175.237 57.7531 175.619 57.7447 176.026 57.7005C176.239 57.6742 176.327 57.6562 176.46 57.612C176.531 57.5857 176.611 57.5587 176.673 57.5587C176.753 57.5587 176.939 57.6292 177.107 57.7095C177.329 57.807 177.427 57.9218 177.427 58.0809C177.427 58.2137 177.303 58.267 177.143 58.267C177.08 58.267 176.983 58.2407 176.566 58.1964C176.256 58.1701 175.91 58.1521 175.529 58.1521C175.193 58.1521 174.829 58.1701 174.474 58.1874C174.412 59.1966 174.279 59.7803 174.031 60.2763C173.57 61.2059 172.781 61.8782 171.379 62.4094L171.264 62.197C172.382 61.6748 173.197 60.8427 173.481 60.1787C173.756 59.5237 173.862 58.9393 173.898 58.2317C173.242 58.2932 172.507 58.3735 172.028 58.444C171.762 58.4793 171.603 58.5236 171.487 58.5678C171.38 58.6031 171.301 58.6384 171.194 58.6384C171.079 58.6384 170.786 58.4703 170.556 58.231C170.476 58.1515 170.414 58.0449 170.378 57.8589L170.529 57.7966C170.715 57.9827 170.839 58.0532 171.149 58.0532C171.336 58.0532 171.478 58.0442 171.691 58.027C172.347 57.9827 173.224 57.9121 173.916 57.8499C173.925 57.5753 173.934 57.3007 173.934 57.0178C173.934 56.7349 173.925 56.4423 173.916 56.1504C173.907 55.8316 173.819 55.7258 173.34 55.7431V55.5397L173.339 55.5411Z" fill="#977CDB"/>
<path d="M177.38 61.2096L177.418 61.1875C178.113 60.7842 178.62 60.3028 179.062 59.6257C179.452 59.0343 179.765 58.0604 179.765 57.6482C179.765 57.5299 179.748 57.4815 179.689 57.422C179.61 57.3432 179.52 57.2823 179.337 57.2387L179.299 57.2297L179.336 56.9814L179.369 56.978C179.441 56.9704 179.52 56.9655 179.595 56.9655C179.664 56.9655 179.761 56.969 179.836 56.9877C179.972 57.0188 180.183 57.1474 180.36 57.3072C180.507 57.4449 180.587 57.5202 180.587 57.6662C180.587 57.7443 180.553 57.799 180.523 57.8474C180.51 57.8688 180.497 57.8896 180.485 57.9138C180.451 58.0003 180.416 58.1061 180.336 58.3523C180.115 59.0426 179.818 59.616 179.451 60.0573C178.951 60.6673 178.375 61.1024 177.583 61.4676L177.549 61.4835L177.382 61.2103L177.38 61.2096ZM181.926 61.0817C181.855 61.0817 181.767 61.0436 181.678 60.9751C181.565 60.8942 181.43 60.7732 181.31 60.6424C181.241 60.5733 181.192 60.4737 181.192 60.4011C181.192 60.3353 181.203 60.2966 181.216 60.2517L181.228 60.2046C181.245 60.1354 181.254 60.0227 181.263 59.9017C181.28 59.275 181.307 58.2755 181.315 57.2131C181.315 57.0755 181.308 56.9787 181.275 56.8929C181.232 56.7864 181.082 56.7165 180.839 56.6895L180.803 56.6854L180.791 56.4198L180.824 56.4108C180.995 56.3665 181.192 56.3389 181.34 56.3389C181.456 56.3389 181.758 56.4488 181.958 56.5851C182.129 56.7082 182.19 56.8258 182.19 56.895C182.19 56.9711 182.165 57.0236 182.121 57.0949C182.057 57.1855 182.027 57.2415 182.003 57.3556C181.978 57.4711 181.967 57.6212 181.959 57.7215C181.956 57.7672 181.953 57.8024 181.95 57.8218C181.895 58.4934 181.879 59.3974 181.871 60.1085C181.871 60.2081 181.902 60.2157 181.943 60.2157C181.963 60.2157 181.996 60.2081 182.026 60.2005C183.134 59.8484 184.12 59.1844 185.259 58.2956L185.293 58.2686L185.483 58.5183L185.458 58.5446C184.65 59.3836 183.928 59.9902 182.423 60.7925C182.359 60.8271 182.161 60.9329 182.106 60.9883C182.046 61.0485 181.983 61.0803 181.924 61.0803L181.926 61.0817Z" fill="#977CDB"/>
<path d="M177.44 61.2248C178.203 60.7822 178.699 60.26 179.098 59.6492C179.488 59.0564 179.807 58.0826 179.807 57.6489C179.807 57.5251 179.789 57.4628 179.718 57.3923C179.63 57.3038 179.532 57.2422 179.346 57.1979L179.372 57.0209C179.531 57.0036 179.718 57.0036 179.824 57.0299C179.939 57.0561 180.144 57.1716 180.33 57.3397C180.481 57.4815 180.543 57.5431 180.543 57.6676C180.543 57.7651 180.481 57.8177 180.445 57.8979C180.41 57.9864 180.375 58.0929 180.295 58.3406C180.091 58.9776 179.807 59.5621 179.417 60.0317C178.938 60.6162 178.371 61.0581 177.564 61.4303L177.44 61.2269V61.2248ZM185.428 58.5156C184.577 59.4009 183.85 59.9847 182.405 60.7552C182.29 60.8168 182.13 60.9053 182.077 60.9585C182.033 61.0028 181.98 61.0381 181.926 61.0381C181.864 61.0381 181.784 61.0028 181.705 60.9406C181.581 60.852 181.448 60.7282 181.341 60.6127C181.279 60.5505 181.235 60.4619 181.235 60.4004C181.235 60.3208 181.253 60.2855 181.27 60.2143C181.288 60.1438 181.297 60.0282 181.306 59.9044C181.324 59.2757 181.35 58.2755 181.359 57.2131C181.359 57.0624 181.35 56.9655 181.315 56.8763C181.261 56.7435 181.084 56.6729 180.845 56.646L180.836 56.4509C181.004 56.4067 181.2 56.3804 181.341 56.3804C181.448 56.3804 181.74 56.4869 181.935 56.6197C182.095 56.7345 182.148 56.841 182.148 56.8943C182.148 56.9565 182.131 57.0008 182.086 57.0714C182.024 57.1599 181.989 57.2214 181.962 57.3459C181.927 57.514 181.918 57.7533 181.909 57.8149C181.856 58.4699 181.838 59.3553 181.829 60.1078C181.829 60.2143 181.865 60.2586 181.944 60.2586C181.971 60.2586 182.006 60.2496 182.042 60.2406C183.212 59.8685 184.232 59.1519 185.287 58.3288L185.429 58.5149L185.428 58.5156Z" fill="#977CDB"/>
<path d="M188.15 62.108C187.999 62.108 187.751 61.9572 187.56 61.749C187.292 61.473 187.161 61.2766 187.15 61.1306C187.144 61.0871 187.146 61.0373 187.148 60.9944L187.149 60.9176L187.34 60.8664L187.358 60.8872C187.606 61.1818 187.772 61.2261 187.848 61.2261C187.998 61.2261 188.096 61.1984 188.234 61.1168C190.028 60.0627 191.42 58.9872 192.889 57.5208L192.919 57.4911L193.146 57.7062L193.122 57.7366C191.837 59.3634 190.479 60.5711 188.58 61.7739C188.502 61.8237 188.441 61.8908 188.391 61.98C188.336 62.0679 188.259 62.108 188.149 62.108H188.15ZM187.831 59.4616C187.658 59.4616 187.541 59.3703 187.429 59.1462C187.245 58.7686 186.943 58.4712 186.581 58.3072L186.543 58.29L186.651 58.0375L186.682 58.0396C186.928 58.0562 187.329 58.1364 187.648 58.31C188.063 58.5403 188.202 58.7278 188.202 59.0556C188.202 59.2472 188.05 59.4616 187.832 59.4616H187.831ZM188.993 57.6467C188.726 57.6467 188.619 57.4385 188.562 57.2822C188.443 56.9419 188.141 56.5933 187.792 56.3927L187.757 56.3726L187.878 56.1312L187.91 56.1368C188.202 56.1893 188.578 56.2744 188.892 56.4702C189.226 56.686 189.381 56.9163 189.381 57.1971C189.381 57.4496 189.211 57.6474 188.993 57.6474V57.6467ZM192.45 57.009C192.264 57.009 192.189 56.8831 192.054 56.6555L192.015 56.5898C191.87 56.3595 191.58 56.0261 191.242 55.8442L191.21 55.8269L191.287 55.6077L191.323 55.6146C191.756 55.6955 192.177 55.8739 192.45 56.0925C192.641 56.2509 192.75 56.4536 192.75 56.6479C192.75 56.8603 192.627 57.009 192.45 57.009ZM193.302 56.2744C193.172 56.2744 193.069 56.1859 192.911 55.9355C192.738 55.6581 192.384 55.3517 192.051 55.1899L192.018 55.174L192.083 54.9526L192.121 54.9589C192.62 55.0453 193 55.1864 193.282 55.3912C193.538 55.5724 193.592 55.7702 193.592 55.9037C193.592 56.1472 193.446 56.2737 193.301 56.2737L193.302 56.2744Z" fill="#977CDB"/>
<path d="M186.679 58.0817C186.945 58.0997 187.335 58.1882 187.627 58.3473C188.026 58.5686 188.159 58.7457 188.159 59.0556C188.159 59.2146 188.035 59.4187 187.831 59.4187C187.689 59.4187 187.583 59.3564 187.467 59.1268C187.281 58.7457 186.971 58.4365 186.599 58.2677L186.678 58.0817H186.679ZM193.089 57.7103C191.768 59.3834 190.403 60.5696 188.559 61.7379C188.461 61.8001 188.399 61.8796 188.355 61.9592C188.311 62.0297 188.248 62.065 188.151 62.065C188.018 62.065 187.779 61.9232 187.593 61.7199C187.3 61.419 187.203 61.2419 187.194 61.1271C187.185 61.0656 187.194 60.9943 187.194 60.95L187.327 60.9148C187.566 61.1984 187.743 61.2689 187.85 61.2689C188 61.2689 188.107 61.2426 188.258 61.1541C189.96 60.1539 191.361 59.1095 192.922 57.5512L193.09 57.7103H193.089ZM187.902 56.1789C188.248 56.2404 188.585 56.329 188.869 56.5067C189.144 56.6838 189.339 56.8962 189.339 57.197C189.339 57.4364 189.179 57.6044 188.993 57.6044C188.78 57.6044 188.674 57.4626 188.603 57.2683C188.479 56.9141 188.168 56.56 187.814 56.3567L187.902 56.1796V56.1789ZM191.316 55.6567C191.741 55.7362 192.158 55.9133 192.424 56.1256C192.584 56.2584 192.708 56.4445 192.708 56.6478C192.708 56.8512 192.593 56.9667 192.451 56.9667C192.274 56.9667 192.212 56.8339 192.052 56.5683C191.902 56.329 191.609 55.9928 191.263 55.8068L191.316 55.6567H191.316ZM192.114 55.001C192.575 55.0805 192.965 55.2133 193.258 55.4257C193.47 55.5758 193.551 55.7445 193.551 55.9036C193.551 56.107 193.436 56.2315 193.303 56.2315C193.205 56.2315 193.116 56.1782 192.948 55.9126C192.771 55.629 192.416 55.3198 192.07 55.1511L192.115 55.001H192.114Z" fill="#977CDB"/>
<path d="M199.61 61.4357C199.439 61.4357 199.324 61.3326 199.268 61.13C199.237 61.0324 199.198 60.9259 199.156 60.8104C199.119 60.7094 199.08 60.6015 199.04 60.4853C197.607 60.7226 196.356 60.9377 194.919 61.2136C194.744 61.2489 194.648 61.2752 194.56 61.3015L194.512 61.3181C194.455 61.3388 194.406 61.3561 194.344 61.3561C194.197 61.3561 193.902 61.1265 193.786 60.9764C193.65 60.8042 193.628 60.7101 193.6 60.4148L193.598 60.3843L193.8 60.2958L193.82 60.3248C193.966 60.5358 194.103 60.5455 194.352 60.5455H194.358C194.53 60.5455 194.66 60.5455 194.808 60.5282C195.312 59.3821 195.809 58.117 196.173 56.9903C196.257 56.7406 196.295 56.585 196.295 56.4985C196.295 56.4211 196.291 56.3906 196.207 56.3298C196.119 56.2661 196.037 56.2219 195.918 56.2136L195.88 56.2108L195.868 55.9507L195.904 55.9431C196.108 55.9002 196.294 55.8975 196.329 55.8975C196.614 55.8975 197.339 56.327 197.339 56.5421C197.339 56.6652 197.285 56.7282 197.171 56.8146C197.063 56.9018 196.998 57.0339 196.929 57.1743L196.5 58.061C196.117 58.855 195.686 59.7515 195.304 60.4929C196.496 60.385 197.667 60.2598 198.879 60.109C198.6 59.5848 198.276 59.1691 197.862 58.8039L197.833 58.7776L198.021 58.53L198.054 58.5486C198.767 58.9588 199.253 59.4077 199.682 60.0489C199.868 60.3235 199.99 60.6949 199.999 60.8941C200.004 61.0871 199.959 61.2379 199.869 61.3312C199.802 61.3997 199.716 61.4343 199.61 61.4343V61.4357Z" fill="#977CDB"/>
<path d="M198.033 58.5868C198.787 59.0204 199.256 59.4894 199.646 60.0739C199.833 60.3485 199.948 60.7109 199.957 60.8969C199.966 61.1888 199.851 61.3929 199.611 61.3929C199.443 61.3929 199.354 61.2781 199.31 61.1183C199.247 60.9239 199.159 60.7019 199.07 60.437C197.571 60.6846 196.339 60.8976 194.912 61.1715C194.734 61.2068 194.637 61.2338 194.548 61.2601C194.468 61.2864 194.415 61.3133 194.344 61.3133C194.22 61.3133 193.936 61.101 193.821 60.9502C193.688 60.7821 193.671 60.6936 193.644 60.41L193.786 60.3478C193.945 60.5781 194.105 60.5871 194.353 60.5871C194.531 60.5871 194.664 60.5871 194.814 60.5698C195.355 59.3926 195.851 58.1268 196.215 57.0021C196.304 56.7365 196.339 56.5858 196.339 56.4972C196.339 56.4087 196.33 56.3644 196.232 56.2939C196.135 56.2233 196.047 56.1791 195.922 56.1701L195.913 55.9847C196.081 55.9494 196.25 55.9404 196.33 55.9404C196.614 55.9404 197.296 56.3651 197.296 56.5422C197.296 56.6397 197.261 56.693 197.145 56.7815C197.012 56.888 196.942 57.0561 196.861 57.2152C196.401 58.1621 195.762 59.5164 195.23 60.5435C196.32 60.446 197.526 60.3222 198.945 60.1451C198.669 59.6139 198.342 59.1712 197.889 58.7728L198.031 58.5868H198.033Z" fill="#977CDB"/>
</g>
<g style="mix-blend-mode:luminosity">
<path d="M82.7861 48.1542C81.9638 48.1542 81.4497 47.9488 81.4497 47.5898C81.4497 47.282 81.8093 47.0254 82.6836 46.7688C83.8661 46.461 84.6372 45.8447 84.7397 45.3315C84.8942 44.6128 84.9455 41.5335 84.9455 40.045C84.9455 38.5566 84.9968 33.3476 84.8942 32.732C84.843 32.373 84.2776 31.9622 82.7868 30.8845C82.4785 30.6791 82.3753 30.5256 82.3753 30.3201C82.3753 29.9611 82.838 29.5503 83.4034 29.4479C85.03 29.0966 87.0328 28.2202 88.0609 27.8453C88.4073 27.7187 88.8001 27.8792 88.9401 28.2202C88.9498 28.2437 88.9546 28.2603 88.9546 28.2679C88.9546 28.8323 88.6463 34.8112 88.6463 37.7362C88.6463 40.6613 88.6976 42.7661 88.7489 44.5616C88.8001 46.2037 89.9314 46.3067 91.2166 46.7169C92.0389 46.9735 92.3472 47.2301 92.3472 47.5891C92.3472 47.8969 91.7306 48.1023 91.1646 48.1023C90.805 48.1023 88.2348 47.9481 87.1555 47.9481C85.4588 47.9481 83.6597 48.1535 82.7861 48.1535V48.1542Z" fill="#EAC688"/>
</g>
<g style="mix-blend-mode:luminosity">
<path d="M98.5607 29.7045C100.257 29.1401 101.851 28.3703 102.365 28.0625C102.981 27.6516 103.091 27.4407 103.393 27.4469C103.842 27.4559 103.856 27.9089 103.856 28.0625C103.856 28.9866 103.753 29.91 103.753 30.8852C103.753 31.0906 104.01 31.1418 104.113 31.0906C106.118 29.1913 108.379 27.9083 109.973 27.9083C112.08 27.9083 112.603 28.9554 112.543 29.6533C112.535 29.7481 112.411 30.0642 112.268 30.3146C112.246 30.3533 112.223 30.3893 112.197 30.4259C111.617 31.2525 110.429 32.5826 110.127 32.7334C110.093 32.7506 110.019 32.7506 109.929 32.7389C109.682 32.7071 109.45 32.6033 109.254 32.4498C108.639 31.9677 107.523 31.4503 106.58 31.4503C105.707 31.4503 104.832 31.6045 104.318 32.169C103.959 32.5798 103.804 33.0412 103.804 33.2978C103.804 34.3242 104.061 42.9203 104.113 43.6901C104.215 45.1786 104.524 46.1532 105.449 46.3074C106.118 46.4617 107.042 46.7183 107.813 46.923C108.636 47.1796 108.739 47.5393 108.739 47.744C108.739 48.0006 108.276 48.2061 107.505 48.2061C106.22 48.2061 104.421 47.9494 101.439 47.9494C99.8971 47.9494 99.2805 48.1549 98.0466 48.1549C97.4813 48.1549 96.9673 47.9494 96.9673 47.5393C96.9673 47.2315 97.5839 47.0261 97.9954 46.8718C100 46.2043 100.154 45.6918 100.206 42.6125V33.5032C100.206 32.99 100.206 32.3232 99.6407 31.9635C98.4069 30.9883 97.8665 30.6583 97.8346 30.4557C97.7764 30.0836 97.8346 29.9556 98.5614 29.7052L98.5607 29.7045Z" fill="#EAC688"/>
</g>
<g style="mix-blend-mode:luminosity">
<path d="M129.341 30.0428C130.112 31.1205 130.369 32.1469 130.369 34.3022C130.369 36.3039 130.163 42.3539 130.163 42.919C130.163 45.2797 131.808 45.4851 132.219 45.4851C132.425 45.4851 133.607 45.1261 134.173 44.7153C134.327 44.6129 134.379 44.7153 134.481 44.8695C134.636 45.0238 134.636 45.3316 134.636 45.3827C134.636 46.358 132.323 48.5644 130.009 48.5644C128.827 48.5644 127.337 47.8977 126.719 45.9983C126.719 45.9471 126.514 45.7417 126.411 45.7929C124.509 47.1271 122.299 48 121.785 48.1536C121.219 48.359 119.985 48.4614 119.728 48.4614C117.929 48.4614 116.181 46.2542 116.181 43.6881C116.181 42.7641 116.593 41.7888 117.158 41.0709C117.665 40.4145 118.42 40.1551 119.178 39.8044C119.202 39.7933 119.226 39.783 119.25 39.7733C120.106 39.4461 124.114 38.345 125.228 37.9915C126.411 37.6326 126.719 37.3759 126.719 37.0675C126.771 36.6054 126.822 33.8913 126.822 33.275C126.822 31.992 125.692 29.9481 123.173 29.9481C122.094 29.9481 121.574 30.3659 121.229 30.6411C121.038 30.794 120.837 31.1391 120.673 31.4732C120.52 31.7865 120.412 32.1199 120.363 32.4651C120.351 32.5495 120.337 32.6255 120.326 32.6518C120.221 32.8877 120.008 33.1021 119.789 33.2397C118.97 33.7544 116.924 34.7628 116.696 34.7628C116.388 34.7628 116.08 34.352 116.08 34.096C116.08 32.6076 117.519 31.171 119.935 29.5794C121.426 28.5018 123.739 27.6289 124.716 27.6289C127.286 27.6289 128.571 28.912 129.342 30.0415L129.341 30.0428ZM125.673 45.0604C125.936 44.9318 126.151 44.718 126.277 44.4545C126.444 44.1094 126.565 43.702 126.565 43.6376C126.667 42.4058 126.667 40.6614 126.667 39.6343C126.667 39.4807 126.462 39.2234 126.256 39.2234C124.852 39.2234 122.472 40.0527 121.067 40.7126C120.995 40.7465 120.928 40.7859 120.863 40.8315C120.384 41.1711 119.933 41.5599 119.933 42.7129C119.933 44.9712 122.092 45.7922 123.172 45.7922C123.871 45.7922 124.781 45.4969 125.673 45.059L125.673 45.0604Z" fill="#EAC688"/>
</g>
<g style="mix-blend-mode:luminosity">
<path d="M139.811 48.1542C138.989 48.1542 138.475 47.9488 138.475 47.5898C138.475 47.282 138.834 47.0254 139.708 46.7688C140.891 46.461 141.662 45.8447 141.765 45.3315C141.919 44.6128 141.97 41.5335 141.97 40.045C141.97 38.5566 142.022 33.3476 141.919 32.732C141.868 32.373 141.303 31.9622 139.812 30.8845C139.503 30.6791 139.4 30.5256 139.4 30.3201C139.4 29.9611 139.863 29.5503 140.428 29.4479C142.055 29.0966 144.058 28.2202 145.086 27.8453C145.432 27.7187 145.825 27.8792 145.965 28.2202C145.975 28.2437 145.98 28.2603 145.98 28.2679C145.98 28.8323 145.671 34.8112 145.671 37.7362C145.671 40.6613 145.722 42.7661 145.774 44.5616C145.825 46.2037 146.956 46.3067 148.241 46.7169C149.064 46.9735 149.372 47.2301 149.372 47.5891C149.372 47.8969 148.756 48.1023 148.19 48.1023C147.831 48.1023 145.26 47.9481 144.18 47.9481C142.484 47.9481 140.685 48.1535 139.811 48.1535V48.1542Z" fill="#EAC688"/>
</g>
<g style="mix-blend-mode:luminosity">
<path d="M162.895 28.627C166.648 28.627 168.909 28.3703 170.041 28.4215C170.178 28.4215 170.315 28.4729 170.452 28.5758C170.658 28.73 170.761 29.1402 170.607 29.3456C169.733 30.5263 168.808 31.5527 167.522 33.4514C166.134 35.5042 161.817 41.842 159.657 45.3322C159.452 45.5376 159.657 45.7942 159.811 45.8454C160.223 45.9997 164.335 46.2563 166.391 46.2563C166.905 46.2563 167.214 46.0508 167.625 45.64C168.345 44.9213 169.27 43.8437 170.144 42.6119C170.607 41.9444 171.018 41.4831 171.223 41.4831C171.635 41.4831 171.686 42.1498 171.635 42.4583C171.48 43.2281 170.607 45.7431 170.247 47.5905C170.247 47.7959 169.784 48.2061 169.579 48.2061C169.219 48.2061 161.817 47.9495 159.349 47.9495C157.087 47.9495 155.751 48.1037 154.568 48.1549C154.362 48.1549 153.9 47.6929 153.9 47.4363C153.9 47.1285 155.956 44.2027 157.498 41.9451C158.989 39.8922 162.587 34.7351 165.003 30.8341C165.105 30.6805 165.054 30.4751 164.848 30.4232C164.489 30.3209 160.633 30.1154 158.217 30.1154C157.754 30.1154 156.058 31.9117 155.184 33.349C155.03 33.6568 154.773 34.17 154.413 34.17C154.207 34.17 153.899 33.708 153.899 33.2978C153.899 32.8358 154.053 32.3226 154.31 31.5527C154.619 30.5263 154.824 29.2432 154.824 28.371C154.824 28.3198 154.824 28.1144 154.979 27.9602C155.287 27.7036 155.493 27.7036 155.544 27.7548C156.162 28.2168 157.292 28.627 158.218 28.627H162.895Z" fill="#EAC688"/>
</g>
<g style="mix-blend-mode:luminosity">
<path d="M190.92 44.2029C191.228 43.9463 191.691 43.1764 191.691 42.971L191.794 31.86C191.794 31.5522 191.228 30.8335 190.92 30.7312C190.149 30.5257 189.018 30.218 188.556 30.1149C188.196 30.0125 187.528 29.704 187.528 29.2939C187.528 29.0885 188.196 28.8318 188.709 28.8318C190.766 28.8318 193.028 28.5752 194.21 28.2674C194.724 28.1139 195.084 28.062 195.444 28.062C195.689 28.062 195.794 28.5738 195.803 28.8C195.804 28.8222 195.803 28.8408 195.802 28.8637C195.696 30.4268 195.29 40.999 195.29 45.1781C195.29 45.2805 195.495 45.8968 195.907 45.8968C196.266 45.8968 197.86 45.6402 198.477 45.6402C198.607 45.6402 198.798 45.9666 198.934 46.2461C199.087 46.5622 198.965 46.9626 198.641 47.101C198.601 47.1183 198.562 47.1286 198.528 47.1286C197.192 47.231 195.033 47.7954 193.851 48.1039C192.977 48.3605 192.308 48.2567 192.206 48.2567C192 48.2567 191.455 47.866 191.455 47.507C191.455 47.1992 191.692 46.5642 191.743 45.692C191.743 45.4354 191.589 45.2812 191.486 45.333C189.995 46.3595 187.939 47.6937 187.271 47.9503C186.398 48.3093 185.266 48.5659 183.827 48.5659C181.977 48.5659 180.332 47.7449 179.304 46.1541C178.944 45.5897 178.584 44.5632 178.584 43.7422C178.584 40.0473 178.584 34.9407 178.481 32.221C178.43 30.7837 177.453 30.579 176.579 30.2193C176.116 30.0139 175.653 29.7573 175.653 29.2953C175.653 29.141 175.91 28.8332 176.527 28.8332C177.967 28.8332 181.77 28.2688 181.976 28.2688C182.181 28.2688 182.387 28.7309 182.387 29.0387C182.438 30.7837 182.233 39.79 182.233 42.0995C182.233 43.2795 182.798 44.4602 183.518 44.9734C184.854 45.9998 185.78 45.9998 187.014 45.9998C188.247 45.9998 189.635 45.3331 190.92 44.2036V44.2029Z" fill="#EAC688"/>
</g>
<g style="mix-blend-mode:luminosity">
<path d="M86.8203 23.4005C88.4793 23.4005 89.8242 22.0578 89.8242 20.4014C89.8242 18.7451 88.4793 17.4023 86.8203 17.4023C85.1613 17.4023 83.8164 18.7451 83.8164 20.4014C83.8164 22.0578 85.1613 23.4005 86.8203 23.4005Z" fill="#EAC688"/>
</g>
<g style="mix-blend-mode:luminosity">
<path d="M143.644 23.4005C145.303 23.4005 146.647 22.0578 146.647 20.4014C146.647 18.7451 145.303 17.4023 143.644 17.4023C141.985 17.4023 140.64 18.7451 140.64 20.4014C140.64 22.0578 141.985 23.4005 143.644 23.4005Z" fill="#EAC688"/>
</g>
</g>
<defs>
<linearGradient id="paint0_linear_22_7" x1="4.28812" y1="67.1759" x2="74.1889" y2="16.1932" gradientUnits="userSpaceOnUse">
<stop stop-color="#EAC688"/>
<stop offset="1" stop-color="#FDE195"/>
</linearGradient>
<linearGradient id="paint1_linear_22_7" x1="52.6663" y1="66.9165" x2="77.8958" y2="24.4821" gradientUnits="userSpaceOnUse">
<stop stop-color="#977CDB"/>
<stop offset="1" stop-color="#BEADFB"/>
</linearGradient>
<clipPath id="clip0_22_7">
<rect width="200" height="66" fill="white"/>
</clipPath>
</defs>
</svg>
