<svg width="40" height="40" viewBox="0 0 40 40" fill="none" xmlns="http://www.w3.org/2000/svg">
<path d="M36.3237 21.2184C34.0715 12.2389 25.3496 8.86124 24.5867 8.03967L26.7314 0.232018C26.7314 0.232018 24.0532 -0.633451 20.2971 0.979127C15.5206 3.02999 12.8594 0.415221 12.8594 0.415221L15.2166 8.16178C14.4781 9.00288 5.20073 12.7736 3.52221 21.6469C2.07323 29.2799 6.6069 40.1734 20.1567 39.9976C33.7078 39.8194 38.2182 28.7575 36.3237 21.2184ZM26.3665 21.9838V24.1127H21.9805L21.2493 25.2516V26.6091H26.3665V28.7392H21.2493V32.4476H18.7517V28.7392H13.6346V26.6091H18.7517V25.2516L18.0193 24.1127H13.6346V21.9838H16.6497L13.0621 16.4016H15.6194L20.0005 23.218L24.3828 16.4016H26.9378L23.3514 21.9838H26.3665Z" fill="#977CDB"/>
</svg>
