<svg width="40" height="40" viewBox="0 0 40 40" fill="none" xmlns="http://www.w3.org/2000/svg">
<g clip-path="url(#clip0_38_1127)">
<path d="M12.9165 16.9693L17.2828 20.3373C17.4508 21.6952 18.5954 22.7511 19.9998 22.7511C21.5195 22.7511 22.7509 21.5191 22.7509 20C22.7509 19.9411 22.7373 19.8866 22.7335 19.8283L29.1323 12.2583C29.5793 11.7573 29.5868 11.0356 29.1515 10.6486C28.7156 10.2605 28.0007 10.3535 27.5549 10.8545L21.267 17.572C20.8863 17.3723 20.4592 17.2489 19.9997 17.2489C19.5074 17.2489 19.0524 17.3884 18.653 17.6148L14.5416 14.752C14.0114 14.3614 13.2165 14.5424 12.767 15.1551C12.3188 15.7663 12.3845 16.5792 12.9165 16.9693Z" fill="#977CDB"/>
<path d="M20 0C19.1233 0 18.4127 0.710625 18.4127 1.58734C18.4127 2.46406 19.1234 3.17461 20 3.17461C24.6516 3.17523 28.8473 5.05523 31.8973 8.10266C34.9448 11.152 36.8248 15.3484 36.8254 20C36.8248 24.6516 34.9448 28.8473 31.8973 31.8973C28.8473 34.9448 24.6516 36.8248 20 36.8254C15.3485 36.8248 11.152 34.9448 8.10273 31.8973C5.05523 28.8473 3.17523 24.6516 3.17461 20C3.17523 16.6202 4.17227 13.4816 5.88547 10.8477L7.35867 11.9487C7.51805 12.0678 7.72883 12.0976 7.91547 12.0269C8.10148 11.9563 8.24039 11.7969 8.28133 11.6009L9.27273 6.91164C9.44945 6.60836 9.52508 6.25992 9.48227 5.91766L9.93055 3.79836C9.97828 3.57523 9.89086 3.3457 9.70914 3.20867C9.52617 3.07289 9.28133 3.0543 9.08039 3.16344L2.06586 6.95562C1.88977 7.05172 1.77508 7.22906 1.76086 7.42805C1.74594 7.62648 1.83398 7.81992 1.99398 7.93961L3.3357 8.94219C1.23016 12.1106 -0.000546693 15.9145 1.8218e-07 20C0.00125018 31.0466 8.95344 39.9987 20 40C31.0466 39.9987 39.9988 31.0466 40 20C39.9988 8.95344 31.0466 0.00125 20 0Z" fill="#977CDB"/>
</g>
<defs>
<clipPath id="clip0_38_1127">
<rect width="40" height="40" fill="white"/>
</clipPath>
</defs>
</svg>
